<?xml version="1.0" encoding="UTF-8"?> <svg xmlns="http://www.w3.org/2000/svg" xmlns:xlink="http://www.w3.org/1999/xlink" width="1440px" height="1024px" viewBox="0 0 1440 1024"><!-- Generator: Sketch 59.1 (86144) - https://sketch.com --><title>CRM 1</title><desc>Created with Sketch.</desc><defs><linearGradient x1="50%" y1="14.0660002%" x2="50%" y2="100%" id="linearGradient-1"><stop stop-color="#E9F0FB" offset="0%"></stop><stop stop-color="#FFFFFF" offset="100%"></stop></linearGradient><linearGradient x1="50%" y1="34.4678665%" x2="-33.8124944%" y2="175.263536%" id="linearGradient-2"><stop stop-color="#F7FAFF" offset="0%"></stop><stop stop-color="#6B9AD9" offset="100%"></stop></linearGradient><linearGradient x1="157.419759%" y1="-0.451826594%" x2="118.835577%" y2="87.0898951%" id="linearGradient-3"><stop stop-color="#E5EDFF" offset="0%"></stop><stop stop-color="#6B9AD9" offset="100%"></stop></linearGradient><linearGradient x1="97.7421152%" y1="-39.6921362%" x2="80.5935898%" y2="115.937591%" id="linearGradient-4"><stop stop-color="#E5EDFF" offset="0%"></stop><stop stop-color="#6B9AD9" offset="100%"></stop></linearGradient><linearGradient x1="71.2187179%" y1="-39.6921362%" x2="63.597151%" y2="115.937591%" id="linearGradient-5"><stop stop-color="#E5EDFF" offset="0%"></stop><stop stop-color="#6B9AD9" offset="100%"></stop></linearGradient><linearGradient x1="157.419759%" y1="-39.6921362%" x2="118.835577%" y2="115.937591%" id="linearGradient-6"><stop stop-color="#E5EDFF" offset="0%"></stop><stop stop-color="#6B9AD9" offset="100%"></stop></linearGradient><linearGradient x1="157.419759%" y1="40.4770753%" x2="118.835577%" y2="57.0008224%" id="linearGradient-7"><stop stop-color="#E5EDFF" offset="0%"></stop><stop stop-color="#6B9AD9" offset="100%"></stop></linearGradient><linearGradient x1="155.084617%" y1="-39.6921362%" x2="117.339196%" y2="115.937591%" id="linearGradient-8"><stop stop-color="#E5EDFF" offset="0%"></stop><stop stop-color="#6B9AD9" offset="100%"></stop></linearGradient><linearGradient x1="83.2804773%" y1="49.5735471%" x2="111.028592%" y2="59.9451392%" id="linearGradient-9"><stop stop-color="#476DB1" offset="0%"></stop><stop stop-color="#283F6F" offset="100%"></stop></linearGradient><linearGradient x1="83.2804773%" y1="49.9357159%" x2="59.8890922%" y2="50.0784964%" id="linearGradient-10"><stop stop-color="#476DB1" offset="0%"></stop><stop stop-color="#283F6F" offset="100%"></stop></linearGradient><linearGradient x1="50%" y1="-142.327103%" x2="50%" y2="170.164832%" id="linearGradient-11"><stop stop-color="#95B7E5" offset="0%"></stop><stop stop-color="#476DB1" offset="100%"></stop></linearGradient><linearGradient x1="50%" y1="32.1187137%" x2="57.5383547%" y2="115.977968%" id="linearGradient-12"><stop stop-color="#84F0A8" offset="0%"></stop><stop stop-color="#48B676" offset="100%"></stop></linearGradient><linearGradient x1="157.419759%" y1="13.262101%" x2="118.835577%" y2="77.0080374%" id="linearGradient-13"><stop stop-color="#E5EDFF" offset="0%"></stop><stop stop-color="#6B9AD9" offset="100%"></stop></linearGradient><linearGradient x1="149.379226%" y1="44.7494984%" x2="157.419759%" y2="56.5227977%" id="linearGradient-14"><stop stop-color="#E5EDFF" offset="0%"></stop><stop stop-color="#6B9AD9" offset="100%"></stop></linearGradient><linearGradient x1="83.2804773%" y1="36.8615485%" x2="59.8890922%" y2="66.0431598%" id="linearGradient-15"><stop stop-color="#476DB1" offset="0%"></stop><stop stop-color="#283F6F" offset="100%"></stop></linearGradient><linearGradient x1="50%" y1="21.4499606%" x2="-33.8592349%" y2="193.813163%" id="linearGradient-16"><stop stop-color="#EEF3FF" offset="0%"></stop><stop stop-color="#6B9AD9" offset="100%"></stop></linearGradient><linearGradient x1="157.419759%" y1="1.29422283%" x2="118.835577%" y2="85.8062788%" id="linearGradient-17"><stop stop-color="#E5EDFF" offset="0%"></stop><stop stop-color="#6B9AD9" offset="100%"></stop></linearGradient><linearGradient x1="50%" y1="-142.327103%" x2="50%" y2="170.164832%" id="linearGradient-18"><stop stop-color="#95B7E5" offset="0%"></stop><stop stop-color="#476DB1" offset="100%"></stop></linearGradient><linearGradient x1="50%" y1="-142.327103%" x2="50%" y2="170.164832%" id="linearGradient-19"><stop stop-color="#95B7E5" offset="0%"></stop><stop stop-color="#476DB1" offset="100%"></stop></linearGradient><linearGradient x1="50%" y1="30.7014308%" x2="55.2277926%" y2="96.5578389%" id="linearGradient-20"><stop stop-color="#1542AB" offset="0%"></stop><stop stop-color="#2B68EE" offset="100%"></stop></linearGradient><linearGradient x1="100%" y1="50%" x2="0%" y2="50%" id="linearGradient-21"><stop stop-color="#2865C6" offset="0%"></stop><stop stop-color="#10378A" offset="100%"></stop></linearGradient><linearGradient x1="60.7312459%" y1="27.6712896%" x2="52.0812714%" y2="50%" id="linearGradient-22"><stop stop-color="#3485F7" offset="0%"></stop><stop stop-color="#1A57CF" offset="100%"></stop></linearGradient><linearGradient x1="100%" y1="50%" x2="0%" y2="50%" id="linearGradient-23"><stop stop-color="#2865C6" offset="0%"></stop><stop stop-color="#10378A" offset="100%"></stop></linearGradient><linearGradient x1="52.9938595%" y1="0%" x2="50%" y2="100%" id="linearGradient-24"><stop stop-color="#FFFFFF" offset="0%"></stop><stop stop-color="#E5EEFF" offset="100%"></stop></linearGradient><linearGradient x1="85.0973284%" y1="88.6567732%" x2="4.85382204%" y2="-13.3429948%" id="linearGradient-25"><stop stop-color="#032258" offset="0%"></stop><stop stop-color="#133E94" offset="100%"></stop></linearGradient><linearGradient x1="85.0973284%" y1="93.5155552%" x2="4.85382204%" y2="-21.3045958%" id="linearGradient-26"><stop stop-color="#032258" offset="0%"></stop><stop stop-color="#133E94" offset="100%"></stop></linearGradient><linearGradient x1="60.7312459%" y1="6.33299401%" x2="50%" y2="93.667006%" id="linearGradient-27"><stop stop-color="#FFFFFF" offset="0%"></stop><stop stop-color="#E5EEFF" offset="100%"></stop></linearGradient><linearGradient x1="74.1642017%" y1="109.304399%" x2="18.9172538%" y2="-47.1761978%" id="linearGradient-28"><stop stop-color="#032258" offset="0%"></stop><stop stop-color="#133E94" offset="100%"></stop></linearGradient><linearGradient x1="69.4657764%" y1="75.602262%" x2="69.4657764%" y2="14.0380158%" id="linearGradient-29"><stop stop-color="#F4AF92" offset="0%"></stop><stop stop-color="#EC906C" offset="100%"></stop></linearGradient><linearGradient x1="50%" y1="32.1187137%" x2="64.7326677%" y2="115.977968%" id="linearGradient-30"><stop stop-color="#84F0A8" offset="0%"></stop><stop stop-color="#48B676" offset="100%"></stop></linearGradient><linearGradient x1="85.0973284%" y1="79.7905007%" x2="4.85382204%" y2="1.1852807%" id="linearGradient-31"><stop stop-color="#032258" offset="0%"></stop><stop stop-color="#133E94" offset="100%"></stop></linearGradient><linearGradient x1="-8.77133659%" y1="92.495564%" x2="17.3111424%" y2="25.3811864%" id="linearGradient-32"><stop stop-color="#FAD0BA" offset="0%"></stop><stop stop-color="#F2A384" offset="100%"></stop></linearGradient><linearGradient x1="100%" y1="50%" x2="0%" y2="50%" id="linearGradient-33"><stop stop-color="#2865C6" offset="0%"></stop><stop stop-color="#10378A" offset="100%"></stop></linearGradient><linearGradient x1="52.6917645%" y1="0%" x2="50.5220542%" y2="50%" id="linearGradient-34"><stop stop-color="#3485F7" offset="0%"></stop><stop stop-color="#1A57CF" offset="100%"></stop></linearGradient><linearGradient x1="50%" y1="27.7727484%" x2="51.3917315%" y2="103.623291%" id="linearGradient-35"><stop stop-color="#1542AB" offset="0%"></stop><stop stop-color="#2B68EE" offset="100%"></stop></linearGradient><linearGradient x1="54.6651556%" y1="0%" x2="50%" y2="100%" id="linearGradient-36"><stop stop-color="#FFFFFF" offset="0%"></stop><stop stop-color="#E5EEFF" offset="100%"></stop></linearGradient><linearGradient x1="50%" y1="-10.8772052%" x2="50%" y2="100%" id="linearGradient-37"><stop stop-color="#FFE579" offset="0%"></stop><stop stop-color="#FEB755" offset="100%"></stop></linearGradient><linearGradient x1="50%" y1="-10.8772052%" x2="50%" y2="100%" id="linearGradient-38"><stop stop-color="#FFE579" offset="0%"></stop><stop stop-color="#FEB755" offset="100%"></stop></linearGradient><linearGradient x1="50%" y1="-10.8772052%" x2="50%" y2="100%" id="linearGradient-39"><stop stop-color="#FFE579" offset="0%"></stop><stop stop-color="#FEB755" offset="100%"></stop></linearGradient><linearGradient x1="72.0701077%" y1="109.304399%" x2="21.6109159%" y2="-47.1761978%" id="linearGradient-40"><stop stop-color="#032258" offset="0%"></stop><stop stop-color="#133E94" offset="100%"></stop></linearGradient><linearGradient x1="100%" y1="50%" x2="0%" y2="50%" id="linearGradient-41"><stop stop-color="#2865C6" offset="0%"></stop><stop stop-color="#10378A" offset="100%"></stop></linearGradient><linearGradient x1="100%" y1="50%" x2="0%" y2="50%" id="linearGradient-42"><stop stop-color="#2865C6" offset="0%"></stop><stop stop-color="#10378A" offset="100%"></stop></linearGradient><linearGradient x1="43.2786342%" y1="16.652469%" x2="65.7932159%" y2="115.977968%" id="linearGradient-43"><stop stop-color="#84F0A8" offset="0%"></stop><stop stop-color="#48B676" offset="100%"></stop></linearGradient><linearGradient x1="45.4890617%" y1="-18.8698211%" x2="61.0272276%" y2="90.1950931%" id="linearGradient-44"><stop stop-color="#84F0A8" offset="0%"></stop><stop stop-color="#48B676" offset="100%"></stop></linearGradient><linearGradient x1="83.2804773%" y1="11.2557844%" x2="59.8890922%" y2="97.3099621%" id="linearGradient-45"><stop stop-color="#476DB1" offset="0%"></stop><stop stop-color="#283F6F" offset="100%"></stop></linearGradient><linearGradient x1="50%" y1="-142.327103%" x2="50%" y2="170.164832%" id="linearGradient-46"><stop stop-color="#95B7E5" offset="0%"></stop><stop stop-color="#476DB1" offset="100%"></stop></linearGradient><linearGradient x1="75.1227074%" y1="11.2557844%" x2="57.4650602%" y2="97.3099621%" id="linearGradient-47"><stop stop-color="#476DB1" offset="0%"></stop><stop stop-color="#283F6F" offset="100%"></stop></linearGradient><linearGradient x1="50%" y1="-142.327103%" x2="50%" y2="170.164832%" id="linearGradient-48"><stop stop-color="#95B7E5" offset="0%"></stop><stop stop-color="#476DB1" offset="100%"></stop></linearGradient><linearGradient x1="50%" y1="-104.289511%" x2="50%" y2="100%" id="linearGradient-49"><stop stop-color="#FFFFFF" offset="0%"></stop><stop stop-color="#B3CDEF" offset="100%"></stop></linearGradient><linearGradient x1="50%" y1="32.1187137%" x2="54.8938101%" y2="115.977968%" id="linearGradient-50"><stop stop-color="#84F0A8" offset="0%"></stop><stop stop-color="#48B676" offset="100%"></stop></linearGradient><linearGradient x1="55.3486348%" y1="0%" x2="50%" y2="100%" id="linearGradient-51"><stop stop-color="#FFFFFF" offset="0%"></stop><stop stop-color="#E5EEFF" offset="100%"></stop></linearGradient><linearGradient x1="157.419759%" y1="14.7384488%" x2="118.835577%" y2="75.9226935%" id="linearGradient-52"><stop stop-color="#E5EDFF" offset="0%"></stop><stop stop-color="#6B9AD9" offset="100%"></stop></linearGradient><linearGradient x1="149.379226%" y1="44.9604948%" x2="157.419759%" y2="56.2606728%" id="linearGradient-53"><stop stop-color="#E5EDFF" offset="0%"></stop><stop stop-color="#6B9AD9" offset="100%"></stop></linearGradient></defs><g id="CRM-1" stroke="none" stroke-width="1" fill="none" fill-rule="evenodd"><path d="M0.878620449,426.506479 C113.865239,352.103474 261.965457,322.102263 445.179274,336.502844 C720,358.103716 702.533751,524.310428 1440,457.707739 L1440,987.998363 L0,987.998363 L0.878620449,426.506479 Z" id="Background-base" fill="url(#linearGradient-1)" opacity="0.5"></path><path d="M168,113 L881,113 C892.045695,113 901,121.954305 901,133 L901,648 C901,650.209139 899.209139,652 897,652 L152,652 C149.790861,652 148,650.209139 148,648 L148,133 C148,121.954305 156.954305,113 168,113 Z" id="Window-base" fill="url(#linearGradient-2)" fill-rule="nonzero"></path><path d="M579,298 C582.313708,298 585,300.686292 585,304 L585,356 C585,359.313708 582.313708,362 579,362 L547,362 C543.686292,362 541,359.313708 541,356 L541,304 C541,300.686292 543.686292,298 547,298 L579,298 Z M579,302 L547,302 C545.895431,302 545,302.895431 545,304 L545,356 C545,357.104569 545.895431,358 547,358 L579,358 C580.104569,358 581,357.104569 581,356 L581,304 C581,302.895431 580.104569,302 579,302 Z" id="Chart-bar-base" fill="#8AAFE1" fill-rule="nonzero"></path><path d="M684,287.877065 C684,288.42935 683.552285,288.877065 683,288.877065 C682.447715,288.877065 682,288.42935 682,287.877065 L682,284 C682,282.343146 680.656854,281 679,281 C678.447715,281 678,280.552285 678,280 C678,279.447715 678.447715,279 679,279 C681.761424,279 684,281.238576 684,284 L684,287.877065 Z M684,307.877065 C684,308.42935 683.552285,308.877065 683,308.877065 C682.447715,308.877065 682,308.42935 682,307.877065 L682,297.877065 C682,297.32478 682.447715,296.877065 683,296.877065 C683.552285,296.877065 684,297.32478 684,297.877065 L684,307.877065 Z M684,327.877065 C684,328.42935 683.552285,328.877065 683,328.877065 C682.447715,328.877065 682,328.42935 682,327.877065 L682,317.877065 C682,317.32478 682.447715,316.877065 683,316.877065 C683.552285,316.877065 684,317.32478 684,317.877065 L684,327.877065 Z M684,347.877065 C684,348.42935 683.552285,348.877065 683,348.877065 C682.447715,348.877065 682,348.42935 682,347.877065 L682,337.877065 C682,337.32478 682.447715,336.877065 683,336.877065 C683.552285,336.877065 684,337.32478 684,337.877065 L684,347.877065 Z M673.246046,361 C672.693761,361.000097 672.24587,360.552461 672.24587,360.000176 C672.24587,359.447891 672.693409,359.000097 673.245694,359 L679.06919,358.999223 C680.179114,358.974263 681.17126,358.340835 681.670872,357.368029 C681.923184,356.876748 682.525985,356.683024 683.017266,356.935336 C683.508548,357.187647 683.702271,357.790448 683.44996,358.281729 C682.61823,359.901208 680.964358,360.95711 679.091848,360.99897 L673.246046,361 Z M653.24587,361 C652.693585,361 652.24587,360.552285 652.24587,360 C652.24587,359.447715 652.693585,359 653.24587,359 L663.24587,359 C663.798155,359 664.24587,359.447715 664.24587,360 C664.24587,360.552285 663.798155,361 663.24587,361 L653.24587,361 Z M642,348.36888 C641.999958,347.816595 642.44764,347.368805 642.999925,347.368805 C643.552209,347.368805 643.999958,347.816445 644,348.368729 L644.000438,356.051937 C644.010798,356.666257 644.205569,357.248676 644.554807,357.738657 C644.875361,358.188395 644.770637,358.812839 644.3209,359.133393 C643.871162,359.453947 643.246718,359.349223 642.926164,358.899485 C642.343928,358.082607 642.017962,357.107879 642.00058,356.068875 L642,348.36888 Z M642,328.368805 C642,327.81652 642.447715,327.368805 643,327.368805 C643.552285,327.368805 644,327.81652 644,328.368805 L644,338.368805 C644,338.92109 643.552285,339.368805 643,339.368805 C642.447715,339.368805 642,338.92109 642,338.368805 L642,328.368805 Z M642,308.368805 C642,307.81652 642.447715,307.368805 643,307.368805 C643.552285,307.368805 644,307.81652 644,308.368805 L644,318.368805 C644,318.92109 643.552285,319.368805 643,319.368805 C642.447715,319.368805 642,318.92109 642,318.368805 L642,308.368805 Z M642,288.368805 C642,287.81652 642.447715,287.368805 643,287.368805 C643.552285,287.368805 644,287.81652 644,288.368805 L644,298.368805 C644,298.92109 643.552285,299.368805 643,299.368805 C642.447715,299.368805 642,298.92109 642,298.368805 L642,288.368805 Z M656.508243,279 C657.060527,279 657.50826,279.447698 657.50826,279.999982 C657.50826,280.552267 657.060563,281 656.508278,281 L646.971999,281.000127 C646.847669,281.001256 646.724548,281.009905 646.603019,281.025919 C646.055468,281.09807 645.553099,280.712682 645.480948,280.165131 C645.408796,279.617579 645.794184,279.115211 646.341736,279.043059 C646.543831,279.016429 646.748142,279.002078 646.9629,279.000168 L656.508243,279 Z M676.50826,279 C677.060545,279 677.50826,279.447715 677.50826,280 C677.50826,280.552285 677.060545,281 676.50826,281 L666.50826,281 C665.955976,281 665.50826,280.552285 665.50826,280 C665.50826,279.447715 665.955976,279 666.50826,279 L676.50826,279 Z" id="Chart-bar-base" fill="#8AAFE1" fill-rule="nonzero"></path><path d="M697,330 L729,330 C731.209139,330 733,331.790861 733,334 L733,356 C733,358.209139 731.209139,360 729,360 L697,360 C694.790861,360 693,358.209139 693,356 L693,334 C693,331.790861 694.790861,330 697,330 Z" id="Chart-bar-base" fill="url(#linearGradient-3)" fill-rule="nonzero"></path><path d="M748,300 L780,300 C782.209139,300 784,301.790861 784,304 L784,356 C784,358.209139 782.209139,360 780,360 L748,360 C745.790861,360 744,358.209139 744,356 L744,304 C744,301.790861 745.790861,300 748,300 Z" id="Chart-bar-base" fill="url(#linearGradient-4)" fill-rule="nonzero"></path><path d="M798,270 L830,270 C832.209139,270 834,271.790861 834,274 L834,356 C834,358.209139 832.209139,360 830,360 L798,360 C795.790861,360 794,358.209139 794,356 L794,274 C794,271.790861 795.790861,270 798,270 Z" id="Chart-bar-base" fill="url(#linearGradient-5)" fill-rule="nonzero"></path><path d="M634,257.877065 C634,258.42935 633.552285,258.877065 633,258.877065 C632.447715,258.877065 632,258.42935 632,257.877065 L632,254 C632,252.343146 630.656854,251 629,251 C628.447715,251 628,250.552285 628,250 C628,249.447715 628.447715,249 629,249 C631.761424,249 634,251.238576 634,254 L634,257.877065 Z M634,277.877065 C634,278.42935 633.552285,278.877065 633,278.877065 C632.447715,278.877065 632,278.42935 632,277.877065 L632,267.877065 C632,267.32478 632.447715,266.877065 633,266.877065 C633.552285,266.877065 634,267.32478 634,267.877065 L634,277.877065 Z M634,297.877065 C634,298.42935 633.552285,298.877065 633,298.877065 C632.447715,298.877065 632,298.42935 632,297.877065 L632,287.877065 C632,287.32478 632.447715,286.877065 633,286.877065 C633.552285,286.877065 634,287.32478 634,287.877065 L634,297.877065 Z M634,317.877065 C634,318.42935 633.552285,318.877065 633,318.877065 C632.447715,318.877065 632,318.42935 632,317.877065 L632,307.877065 C632,307.32478 632.447715,306.877065 633,306.877065 C633.552285,306.877065 634,307.32478 634,307.877065 L634,317.877065 Z M634,337.877065 C634,338.42935 633.552285,338.877065 633,338.877065 C632.447715,338.877065 632,338.42935 632,337.877065 L632,327.877065 C632,327.32478 632.447715,326.877065 633,326.877065 C633.552285,326.877065 634,327.32478 634,327.877065 L634,337.877065 Z M633.44996,358.281729 C633.197648,358.773011 632.594847,358.966734 632.103566,358.714423 C631.612284,358.462111 631.418561,357.85931 631.670872,357.368029 C631.886218,356.948724 632,356.4836 632,356 L632,347.877065 C632,347.32478 632.447715,346.877065 633,346.877065 C633.552285,346.877065 634,347.32478 634,347.877065 L634,356 C634,356.803257 633.809656,357.581356 633.44996,358.281729 Z M613.24587,361 C612.693585,361 612.24587,360.552285 612.24587,360 C612.24587,359.447715 612.693585,359 613.24587,359 L623.24587,359 C623.798155,359 624.24587,359.447715 624.24587,360 C624.24587,360.552285 623.798155,361 623.24587,361 L613.24587,361 Z M592.926164,358.899485 C592.60561,358.449748 592.710334,357.825304 593.160072,357.50475 C593.609809,357.184196 594.234253,357.28892 594.554807,357.738657 C595.115187,358.524871 596.016881,359 597,359 L603.24587,359 C603.798155,359 604.24587,359.447715 604.24587,360 C604.24587,360.552285 603.798155,361 603.24587,361 L597,361 C595.363303,361 593.857953,360.206786 592.926164,358.899485 Z M592,338.368805 C592,337.81652 592.447715,337.368805 593,337.368805 C593.552285,337.368805 594,337.81652 594,338.368805 L594,348.368805 C594,348.92109 593.552285,349.368805 593,349.368805 C592.447715,349.368805 592,348.92109 592,348.368805 L592,338.368805 Z M592,318.368805 C592,317.81652 592.447715,317.368805 593,317.368805 C593.552285,317.368805 594,317.81652 594,318.368805 L594,328.368805 C594,328.92109 593.552285,329.368805 593,329.368805 C592.447715,329.368805 592,328.92109 592,328.368805 L592,318.368805 Z M592,298.368805 C592,297.81652 592.447715,297.368805 593,297.368805 C593.552285,297.368805 594,297.81652 594,298.368805 L594,308.368805 C594,308.92109 593.552285,309.368805 593,309.368805 C592.447715,309.368805 592,308.92109 592,308.368805 L592,298.368805 Z M592,278.368805 C592,277.81652 592.447715,277.368805 593,277.368805 C593.552285,277.368805 594,277.81652 594,278.368805 L594,288.368805 C594,288.92109 593.552285,289.368805 593,289.368805 C592.447715,289.368805 592,288.92109 592,288.368805 L592,278.368805 Z M592,258.368805 C592,257.81652 592.447715,257.368805 593,257.368805 C593.552285,257.368805 594,257.81652 594,258.368805 L594,268.368805 C594,268.92109 593.552285,269.368805 593,269.368805 C592.447715,269.368805 592,268.92109 592,268.368805 L592,258.368805 Z M606.508243,249 C607.060527,249 607.50826,249.447698 607.50826,249.999982 C607.50826,250.552267 607.060563,251 606.508278,251 L596.971999,251.000127 C596.847669,251.001256 596.724548,251.009905 596.603019,251.025919 C596.055468,251.09807 595.553099,250.712682 595.480948,250.165131 C595.408796,249.617579 595.794184,249.115211 596.341736,249.043059 C596.543831,249.016429 596.748142,249.002078 596.9629,249.000168 L606.508243,249 Z M626.50826,249 C627.060545,249 627.50826,249.447715 627.50826,250 C627.50826,250.552285 627.060545,251 626.50826,251 L616.50826,251 C615.955976,251 615.50826,250.552285 615.50826,250 C615.50826,249.447715 615.955976,249 616.50826,249 L626.50826,249 Z" id="Chart-bar-base" fill="#8AAFE1" fill-rule="nonzero"></path><path d="M413,260 L463,260 C465.209139,260 467,261.790861 467,264 L467,314 C467,316.209139 465.209139,318 463,318 L413,318 C410.790861,318 409,316.209139 409,314 L409,264 C409,261.790861 410.790861,260 413,260 Z" id="UI-base" fill="url(#linearGradient-6)" fill-rule="nonzero"></path><path d="M348,267.877065 C348,268.42935 347.552285,268.877065 347,268.877065 C346.447715,268.877065 346,268.42935 346,267.877065 L346,264 C346,262.343146 344.656854,261 343,261 C342.447715,261 342,260.552285 342,260 C342,259.447715 342.447715,259 343,259 C345.761424,259 348,261.238576 348,264 L348,267.877065 Z M348,287.877065 C348,288.42935 347.552285,288.877065 347,288.877065 C346.447715,288.877065 346,288.42935 346,287.877065 L346,277.877065 C346,277.32478 346.447715,276.877065 347,276.877065 C347.552285,276.877065 348,277.32478 348,277.877065 L348,287.877065 Z M348,307.877065 C348,308.42935 347.552285,308.877065 347,308.877065 C346.447715,308.877065 346,308.42935 346,307.877065 L346,297.877065 C346,297.32478 346.447715,296.877065 347,296.877065 C347.552285,296.877065 348,297.32478 348,297.877065 L348,307.877065 Z M335.246,319 C334.693715,319.000072 334.24587,318.552415 334.24587,318.00013 C334.24587,317.447845 334.693455,317.000072 335.24574,317 L343.068862,316.99923 C343.576992,316.987858 344.062951,316.850282 344.492633,316.603118 L344.673237,316.490529 C345.131294,316.18198 345.752751,316.303179 346.0613,316.761235 C346.36985,317.219291 346.248651,317.840748 345.790594,318.149298 C345.003536,318.679465 344.080071,318.9771 343.091367,318.99898 L335.246,319 Z M315.24587,319 C314.693585,319 314.24587,318.552285 314.24587,318 C314.24587,317.447715 314.693585,317 315.24587,317 L325.24587,317 C325.798155,317 326.24587,317.447715 326.24587,318 C326.24587,318.552285 325.798155,319 325.24587,319 L315.24587,319 Z M295.24587,319 C294.693585,319 294.24587,318.552285 294.24587,318 C294.24587,317.447715 294.693585,317 295.24587,317 L305.24587,317 C305.798155,317 306.24587,317.447715 306.24587,318 C306.24587,318.552285 305.798155,319 305.24587,319 L295.24587,319 Z M275.24587,319 C274.693585,319 274.24587,318.552285 274.24587,318 C274.24587,317.447715 274.693585,317 275.24587,317 L285.24587,317 C285.798155,317 286.24587,317.447715 286.24587,318 C286.24587,318.552285 285.798155,319 285.24587,319 L275.24587,319 Z M255.24587,319 C254.693585,319 254.24587,318.552285 254.24587,318 C254.24587,317.447715 254.693585,317 255.24587,317 L265.24587,317 C265.798155,317 266.24587,317.447715 266.24587,318 C266.24587,318.552285 265.798155,319 265.24587,319 L255.24587,319 Z M235.24587,319 C234.693585,319 234.24587,318.552285 234.24587,318 C234.24587,317.447715 234.693585,317 235.24587,317 L245.24587,317 C245.798155,317 246.24587,317.447715 246.24587,318 C246.24587,318.552285 245.798155,319 245.24587,319 L235.24587,319 Z M215.24587,319 C214.693585,319 214.24587,318.552285 214.24587,318 C214.24587,317.447715 214.693585,317 215.24587,317 L225.24587,317 C225.798155,317 226.24587,317.447715 226.24587,318 C226.24587,318.552285 225.798155,319 225.24587,319 L215.24587,319 Z M198,312.368805 C198,311.81652 198.447715,311.368805 199,311.368805 C199.552285,311.368805 200,311.81652 200,312.368805 L200,314 C200,315.656854 201.343146,317 203,317 L205.24587,317 C205.798155,317 206.24587,317.447715 206.24587,318 C206.24587,318.552285 205.798155,319 205.24587,319 L203,319 C200.238576,319 198,316.761424 198,314 L198,312.368805 Z M198,292.368805 C198,291.81652 198.447715,291.368805 199,291.368805 C199.552285,291.368805 200,291.81652 200,292.368805 L200,302.368805 C200,302.92109 199.552285,303.368805 199,303.368805 C198.447715,303.368805 198,302.92109 198,302.368805 L198,292.368805 Z M198,272.368805 C198,271.81652 198.447715,271.368805 199,271.368805 C199.552285,271.368805 200,271.81652 200,272.368805 L200,282.368805 C200,282.92109 199.552285,283.368805 199,283.368805 C198.447715,283.368805 198,282.92109 198,282.368805 L198,272.368805 Z M208.50809,259 C209.060374,258.999906 209.50826,259.447545 209.50826,259.999829 C209.50826,260.552114 209.060716,260.999906 208.508431,261 L202.933364,261.000721 C201.754916,261.02624 200.712276,261.738091 200.248208,262.802616 C200.027505,263.308886 199.438178,263.540384 198.931909,263.319681 C198.425639,263.098978 198.194141,262.509651 198.414844,262.003381 C199.187979,260.229889 200.925324,259.043735 202.911544,259.000955 L208.50809,259 Z M228.50826,259 C229.060545,259 229.50826,259.447715 229.50826,260 C229.50826,260.552285 229.060545,261 228.50826,261 L218.50826,261 C217.955976,261 217.50826,260.552285 217.50826,260 C217.50826,259.447715 217.955976,259 218.50826,259 L228.50826,259 Z M248.50826,259 C249.060545,259 249.50826,259.447715 249.50826,260 C249.50826,260.552285 249.060545,261 248.50826,261 L238.50826,261 C237.955976,261 237.50826,260.552285 237.50826,260 C237.50826,259.447715 237.955976,259 238.50826,259 L248.50826,259 Z M268.50826,259 C269.060545,259 269.50826,259.447715 269.50826,260 C269.50826,260.552285 269.060545,261 268.50826,261 L258.50826,261 C257.955976,261 257.50826,260.552285 257.50826,260 C257.50826,259.447715 257.955976,259 258.50826,259 L268.50826,259 Z M288.50826,259 C289.060545,259 289.50826,259.447715 289.50826,260 C289.50826,260.552285 289.060545,261 288.50826,261 L278.50826,261 C277.955976,261 277.50826,260.552285 277.50826,260 C277.50826,259.447715 277.955976,259 278.50826,259 L288.50826,259 Z M308.50826,259 C309.060545,259 309.50826,259.447715 309.50826,260 C309.50826,260.552285 309.060545,261 308.50826,261 L298.50826,261 C297.955976,261 297.50826,260.552285 297.50826,260 C297.50826,259.447715 297.955976,259 298.50826,259 L308.50826,259 Z M328.50826,259 C329.060545,259 329.50826,259.447715 329.50826,260 C329.50826,260.552285 329.060545,261 328.50826,261 L318.50826,261 C317.955976,261 317.50826,260.552285 317.50826,260 C317.50826,259.447715 317.955976,259 318.50826,259 L328.50826,259 Z M343,259 C343.552285,259 344,259.447715 344,260 C344,260.552285 343.552285,261 343,261 L338.50826,261 C337.955976,261 337.50826,260.552285 337.50826,260 C337.50826,259.447715 337.955976,259 338.50826,259 L343,259 Z" id="UI-base" fill="#8AAFE1" fill-rule="nonzero"></path><path d="M203,340 L373,340 C375.209139,340 377,341.790861 377,344 L377,394 C377,396.209139 375.209139,398 373,398 L203,398 C200.790861,398 199,396.209139 199,394 L199,344 C199,341.790861 200.790861,340 203,340 Z" id="UI-base" fill="url(#linearGradient-7)" fill-rule="nonzero"></path><path d="M463,346 C466.313708,346 469,348.686292 469,352 L469,402 C469,405.313708 466.313708,408 463,408 L413,408 C409.686292,408 407,405.313708 407,402 L407,352 C407,348.686292 409.686292,346 413,346 L463,346 Z M463,350 L413,350 C411.895431,350 411,350.895431 411,352 L411,402 C411,403.104569 411.895431,404 413,404 L463,404 C464.104569,404 465,403.104569 465,402 L465,352 C465,350.895431 464.104569,350 463,350 Z" id="UI-base" fill="#8AAFE1" fill-rule="nonzero"></path><path d="M413,436 L463,436 C465.209139,436 467,437.790861 467,440 L467,490 C467,492.209139 465.209139,494 463,494 L413,494 C410.790861,494 409,492.209139 409,490 L409,440 C409,437.790861 410.790861,436 413,436 Z" id="UI-base" fill="#E0E5FF" fill-rule="nonzero"></path><path d="M468,531.877065 C468,532.42935 467.552285,532.877065 467,532.877065 C466.447715,532.877065 466,532.42935 466,531.877065 L466,528 C466,526.343146 464.656854,525 463,525 C462.447715,525 462,524.552285 462,524 C462,523.447715 462.447715,523 463,523 C465.761424,523 468,525.238576 468,528 L468,531.877065 Z M468,551.877065 C468,552.42935 467.552285,552.877065 467,552.877065 C466.447715,552.877065 466,552.42935 466,551.877065 L466,541.877065 C466,541.32478 466.447715,540.877065 467,540.877065 C467.552285,540.877065 468,541.32478 468,541.877065 L468,551.877065 Z M468,571.877065 C468,572.42935 467.552285,572.877065 467,572.877065 C466.447715,572.877065 466,572.42935 466,571.877065 L466,561.877065 C466,561.32478 466.447715,560.877065 467,560.877065 C467.552285,560.877065 468,561.32478 468,561.877065 L468,571.877065 Z M455.246,583 C454.693715,583.000072 454.24587,582.552415 454.24587,582.00013 C454.24587,581.447845 454.693455,581.000072 455.24574,581 L463.068862,580.99923 C463.576992,580.987858 464.062951,580.850282 464.492633,580.603118 L464.673237,580.490529 C465.131294,580.18198 465.752751,580.303179 466.0613,580.761235 C466.36985,581.219291 466.248651,581.840748 465.790594,582.149298 C465.003536,582.679465 464.080071,582.9771 463.091367,582.99898 L455.246,583 Z M435.24587,583 C434.693585,583 434.24587,582.552285 434.24587,582 C434.24587,581.447715 434.693585,581 435.24587,581 L445.24587,581 C445.798155,581 446.24587,581.447715 446.24587,582 C446.24587,582.552285 445.798155,583 445.24587,583 L435.24587,583 Z M415.24587,583 C414.693585,583 414.24587,582.552285 414.24587,582 C414.24587,581.447715 414.693585,581 415.24587,581 L425.24587,581 C425.798155,581 426.24587,581.447715 426.24587,582 C426.24587,582.552285 425.798155,583 425.24587,583 L415.24587,583 Z M408,566.368805 C408,565.81652 408.447715,565.368805 409,565.368805 C409.552285,565.368805 410,565.81652 410,566.368805 L410,576.368805 C410,576.92109 409.552285,577.368805 409,577.368805 C408.447715,577.368805 408,576.92109 408,576.368805 L408,566.368805 Z M408,546.368805 C408,545.81652 408.447715,545.368805 409,545.368805 C409.552285,545.368805 410,545.81652 410,546.368805 L410,556.368805 C410,556.92109 409.552285,557.368805 409,557.368805 C408.447715,557.368805 408,556.92109 408,556.368805 L408,546.368805 Z M408.414844,526.003381 C408.635547,525.497112 409.224874,525.265614 409.731144,525.486317 C410.237413,525.70702 410.468911,526.296347 410.248208,526.802616 C410.08521,527.176518 410,527.581369 410,528 L410,536.368805 C410,536.92109 409.552285,537.368805 409,537.368805 C408.447715,537.368805 408,536.92109 408,536.368805 L408,528 C408,527.305032 408.142448,526.628231 408.414844,526.003381 Z M428.50826,523 C429.060545,523 429.50826,523.447715 429.50826,524 C429.50826,524.552285 429.060545,525 428.50826,525 L418.50826,525 C417.955976,525 417.50826,524.552285 417.50826,524 C417.50826,523.447715 417.955976,523 418.50826,523 L428.50826,523 Z M448.50826,523 C449.060545,523 449.50826,523.447715 449.50826,524 C449.50826,524.552285 449.060545,525 448.50826,525 L438.50826,525 C437.955976,525 437.50826,524.552285 437.50826,524 C437.50826,523.447715 437.955976,523 438.50826,523 L448.50826,523 Z M463,523 C463.552285,523 464,523.447715 464,524 C464,524.552285 463.552285,525 463,525 L458.50826,525 C457.955976,525 457.50826,524.552285 457.50826,524 C457.50826,523.447715 457.955976,523 458.50826,523 L463,523 Z" id="UI-base" fill="#8AAFE1" fill-rule="nonzero"></path><path d="M202,421 L375,421 C377.209139,421 379,422.790861 379,425 L379,600 C379,602.209139 377.209139,604 375,604 L202,604 C199.790861,604 198,602.209139 198,600 L198,425 C198,422.790861 199.790861,421 202,421 Z" id="UI-base" fill="url(#linearGradient-8)" fill-rule="nonzero"></path><path d="M168,113 L881,113 C892.045695,113 901,121.954305 901,133 L901,188 C901,190.209139 899.209139,192 897,192 L152,192 C149.790861,192 148,190.209139 148,188 L148,133 C148,121.954305 156.954305,113 168,113 Z" id="Titlebar-base" fill="url(#linearGradient-9)" fill-rule="nonzero"></path><circle id="Titlebar-button" fill="#FFFFFF" fill-rule="nonzero" cx="185.5" cy="152.5" r="12.5"></circle><circle id="Titlebar-button" fill="#FFFFFF" fill-rule="nonzero" cx="224.5" cy="152.5" r="12.5"></circle><circle id="Titlebar-button" fill="#FFFFFF" fill-rule="nonzero" cx="263.5" cy="152.5" r="12.5"></circle><path d="M561,420 L830.572187,420 C831.676756,420 832.572187,419.104569 832.572187,418 C832.572187,416.895431 831.676756,416 830.572187,416 L561,416 C559.895431,416 559,416.895431 559,418 C559,419.104569 559.895431,420 561,420 Z" id="Path-52" fill="#8AAFE1" fill-rule="nonzero"></path><path d="M561,452 L830.572187,452 C831.676756,452 832.572187,451.104569 832.572187,450 C832.572187,448.895431 831.676756,448 830.572187,448 L561,448 C559.895431,448 559,448.895431 559,450 C559,451.104569 559.895431,452 561,452 Z" id="Path-52-Copy" fill="#8AAFE1" fill-rule="nonzero"></path><path d="M561,484 L830.572187,484 C831.676756,484 832.572187,483.104569 832.572187,482 C832.572187,480.895431 831.676756,480 830.572187,480 L561,480 C559.895431,480 559,480.895431 559,482 C559,483.104569 559.895431,484 561,484 Z" id="Path-52-Copy-2" fill="#8AAFE1" fill-rule="nonzero"></path><path d="M561,516 L830.572187,516 C831.676756,516 832.572187,515.104569 832.572187,514 C832.572187,512.895431 831.676756,512 830.572187,512 L561,512 C559.895431,512 559,512.895431 559,514 C559,515.104569 559.895431,516 561,516 Z" id="Path-52-Copy-3" fill="#8AAFE1" fill-rule="nonzero"></path><path d="M561,548 L830.572187,548 C831.676756,548 832.572187,547.104569 832.572187,546 C832.572187,544.895431 831.676756,544 830.572187,544 L561,544 C559.895431,544 559,544.895431 559,546 C559,547.104569 559.895431,548 561,548 Z" id="Path-52-Copy-4" fill="#8AAFE1" fill-rule="nonzero"></path><path d="M561,580 L830.572187,580 C831.676756,580 832.572187,579.104569 832.572187,578 C832.572187,576.895431 831.676756,576 830.572187,576 L561,576 C559.895431,576 559,576.895431 559,578 C559,579.104569 559.895431,580 561,580 Z" id="Path-52-Copy-5" fill="#8AAFE1" fill-rule="nonzero"></path><polygon id="Table-base" fill="url(#linearGradient-10)" fill-rule="nonzero" points="436 601 927 601 927 621 436 621"></polygon><path d="M459,844.942195 L482.553049,623 L459,623 L459,844.942195 Z M487,619 L461.31659,861.016752 C461.136583,862.712967 459.70574,864 458,864 C456.343146,864 455,862.656854 455,861 L455,619 L487,619 Z" id="Table-base" fill="url(#linearGradient-11)" fill-rule="nonzero"></path><path d="M893,844.942195 L893,623 L869.446951,623 L893,844.942195 Z M865,619 L897,619 L897,861 C897,862.656854 895.656854,864 894,864 C892.29426,864 890.863417,862.712967 890.68341,861.016752 L865,619 Z" id="Table-base" fill="url(#linearGradient-11)" fill-rule="nonzero"></path><path d="M865,548 L868,548 L868,537 C868,533.686292 870.686292,531 874,531 C877.313708,531 880,533.686292 880,537 L880,554 C880,557.313708 877.313708,560 874,560 C873.659288,560 873.325208,559.971601 873,559.917042 C872.674792,559.971601 872.340712,560 872,560 L865,560 L865,576 L845,576 L845,533 C845,527.477153 849.477153,523 855,523 C860.522847,523 865,527.477153 865,533 L865,548 Z" id="Mask" fill="url(#linearGradient-12)" fill-rule="nonzero"></path><path d="M845,520 L846,520 L846,582.784435 L845,582.784435 L845,520 Z M848,520 L849,520 L849,582.784435 L848,582.784435 L848,520 Z M851,520 L852,520 L852,582.784435 L851,582.784435 L851,520 Z M854,520 L855,520 L855,582.784435 L854,582.784435 L854,520 Z M857,520 L858,520 L858,582.784435 L857,582.784435 L857,520 Z M860,520 L861,520 L861,582.784435 L860,582.784435 L860,520 Z M863,520 L864,520 L864,582.784435 L863,582.784435 L863,520 Z M866,520 L867,520 L867,582.784435 L866,582.784435 L866,520 Z M869,520 L870,520 L870,582.784435 L869,582.784435 L869,520 Z M872,520 L873,520 L873,582.784435 L872,582.784435 L872,520 Z M875,520 L876,520 L876,582.784435 L875,582.784435 L875,520 Z M878,520 L879,520 L879,582.784435 L878,582.784435 L878,520 Z" id="Shape" fill="#42B16D" fill-rule="nonzero"></path><polygon id="vase" fill="url(#linearGradient-13)" fill-rule="nonzero" points="831 569 881 569 869.888889 601 842.111111 601"></polygon><path d="M832,568 L879,568 C880.104569,568 881,568.895431 881,570 L881,576 C881,577.104569 880.104569,578 879,578 L832,578 C830.895431,578 830,577.104569 830,576 L830,570 C830,568.895431 830.895431,568 832,568 Z" id="vase" fill="url(#linearGradient-14)" fill-rule="nonzero"></path><path d="M566,430 L807,430 C809.209139,430 811,431.790861 811,434 L811,571 C811,573.209139 809.209139,575 807,575 L566,575 C563.790861,575 562,573.209139 562,571 L562,434 C562,431.790861 563.790861,430 566,430 Z" id="Imac-base" fill="url(#linearGradient-15)" fill-rule="nonzero"></path><polygon id="Imac-base" fill="#B7C8FF" fill-rule="nonzero" points="660 574 715 574 715 607 660 607"></polygon><polygon id="Imac-base" fill="#FFFFFF" fill-rule="nonzero" points="572 440 801 440 801 565 572 565"></polygon><path d="M425.968801,606.868586 L477.112521,628.21903 C479.151151,629.070076 480.113879,631.412622 479.262833,633.451253 C479.152031,633.716673 479.012925,633.969368 478.847928,634.204954 L417.521302,721.768515 C416.443081,723.308025 414.438451,723.889197 412.703984,723.165127 L361.560264,701.814682 C359.521634,700.963636 358.558906,698.62109 359.409953,696.582459 C359.520755,696.31704 359.659861,696.064345 359.824857,695.828759 L421.151483,608.265197 C422.229705,606.725687 424.234335,606.144516 425.968801,606.868586 Z" id="Note-base" fill="url(#linearGradient-16)" fill-rule="nonzero"></path><path d="M447.068009,609.585546 C449.034566,607.911669 452.035044,607.27502 454.364776,608.178608 C456.784124,609.116954 457.677463,611.404996 456.64617,613.584381 L458.989672,614.562782 C461.028277,615.413889 461.990934,617.756464 461.139826,619.795069 C460.939489,620.274924 460.647512,620.711113 460.280236,621.079222 L455.112096,626.259092 C453.954465,627.41935 452.206156,627.756001 450.700445,627.10859 L437.182559,621.296299 C435.153069,620.423678 434.215241,618.071053 435.087861,616.041564 C435.253733,615.65579 435.479316,615.298541 435.756322,614.982942 L440.361175,609.736541 C441.493897,608.446008 443.32392,608.022408 444.908497,608.683961 L447.068009,609.585546 L447.068009,609.585546 Z M450.246738,613.595666 C451.401862,614.042707 452.951179,613.586532 453.707234,612.576771 C454.463289,611.56701 454.139779,610.386038 452.984655,609.938997 C451.829531,609.491956 450.280215,609.948131 449.52416,610.957892 C448.768105,611.967654 449.091614,613.148625 450.246738,613.595666 Z" id="Shape" fill="url(#linearGradient-17)" fill-rule="nonzero"></path><path d="M425.512779,640.918849 C425.322031,642.472365 426.426773,643.88637 427.980288,644.077118 L453.948533,647.265617 L454.639291,641.639839 L428.671047,638.45134 C427.117531,638.260592 425.703526,639.365334 425.512779,640.918849 Z" id="Pen-base" fill="url(#linearGradient-18)" fill-rule="nonzero"></path><path d="M426.429363,645.155708 C426.386975,645.500934 426.632473,645.815157 426.977699,645.857546 L435.635785,646.920625 C435.98101,646.963013 436.295234,646.717515 436.337622,646.37229 C436.38001,646.027064 436.134512,645.712841 435.789287,645.670452 L427.1312,644.607373 C426.785975,644.564985 426.471751,644.810483 426.429363,645.155708 Z" id="Pen-base" fill="url(#linearGradient-19)" fill-rule="nonzero"></path><path d="M421.738204,640.45539 C421.632233,641.318454 422.245978,642.104012 423.109042,642.209983 L425.173651,642.463485 C426.036715,642.569456 426.822273,641.955711 426.928244,641.092647 C427.034215,640.229583 426.42047,639.444024 425.557406,639.338053 L423.492797,639.084551 C422.629733,638.97858 421.844175,639.592326 421.738204,640.45539 Z" id="Pen-base" fill="#F2F5FF" fill-rule="nonzero"></path><polygon id="Pen-base" fill="#F2F5FF" fill-rule="nonzero" points="454.16747 641.581907 453.476711 647.207685 458.973755 645.344596"></polygon><path d="M445.430545,855.245935 C445.565691,853.819409 453.926755,845.68368 462.922177,855.156891 C471.917598,864.630103 474.309449,868.027255 478.468942,871.576022 C481.241937,873.941867 484.151159,875.533218 487.196609,876.350075 L470.042274,877.435155 L445.333016,874.592682 C445.307939,862.645869 445.340448,856.196953 445.430545,855.245935 Z" id="Leg" fill="#F2A384" fill-rule="nonzero"></path><path d="M353.494799,842.478287 L332.97104,783.989406 C384.573814,741.378108 421.555395,726.790587 443.915782,740.226842 C477.456362,760.381225 470.554341,855.499457 470.908772,858.24733 C471.263203,860.995202 451.28905,868.563922 447.509215,860.984643 C443.72938,853.405364 422.447707,807.722048 420.288286,790.980236 C411.226457,802.98563 388.961961,820.151646 353.494799,842.478287 Z" id="Pants" fill="url(#linearGradient-20)" fill-rule="nonzero"></path><polygon id="Leg" fill="#F2A384" fill-rule="nonzero" points="298.24335 883.511521 271.022512 877.33547 263.70018 879.740674 274.777005 865.165072 294.148633 861.172012"></polygon><path d="M445.331538,863.834838 C448.883151,862.067097 453.342903,871.697645 459.853035,871.697645 C466.363168,871.697645 470.412734,862.953022 472.076454,863.834838 C476.940298,866.412802 483.998746,867.6665 491.767184,870.699298 C510.879315,878.160671 512.730328,879.231735 509.949969,890.318923 C509.949969,892.783123 488.241797,894.015222 444.825452,894.015222 C443.068775,888.8627 442.122018,884.050434 441.98518,879.578426 C441.779924,872.870414 441.779924,865.602579 445.331538,863.834838 Z" id="Shoes" fill="url(#linearGradient-21)" fill-rule="nonzero"></path><path d="M464.908648,853.874809 C449.166332,902.298831 298.864216,893.164065 288.811595,888.416352 C283.075417,885.707235 289.044613,862.360772 292.208006,861.221683 C299.557537,858.575232 402.054479,849.470315 382.373466,853.874809 C362.692452,858.279304 274.657985,845.987205 277.458115,800.38668 C279.30642,770.286771 282.711453,762.180664 302.576475,767.076917 C312.806409,769.598351 337.538555,780.471333 347.448856,783.29919 C412.019481,801.724115 479.22753,809.829332 464.908648,853.874809 Z" id="Pants" fill="url(#linearGradient-22)" fill-rule="nonzero"></path><path d="M287.088757,862.613376 C286.359839,866.012354 278.286864,863.25693 274.666965,867.570956 C271.047067,871.884983 274.958651,879.740111 273.412042,880.321086 C268.890569,882.019553 264.082164,885.955482 257.625047,889.309726 C241.739067,897.561931 239.954931,898.155096 233.686551,889.755615 C231.949756,888.298272 243.151985,873.184387 267.293238,844.413962 C271.901577,846.297112 275.81975,848.515737 279.047758,851.069835 C283.88977,854.900983 287.817675,859.214397 287.088757,862.613376 Z" id="Shoes" fill="url(#linearGradient-23)" fill-rule="nonzero"></path><path d="M320.495657,876.079774 C322.181236,875.949535 323.843858,875.817808 325.483524,875.684593 C325.758759,875.662231 325.963754,875.420981 325.941393,875.145746 C325.919031,874.87051 325.677781,874.665515 325.402545,874.687877 L322.095239,874.952112 C321.538918,874.995822 320.980045,875.039366 320.41862,875.082746 C320.143298,875.104019 319.937351,875.344457 319.958625,875.619778 C319.979898,875.8951 320.220335,876.101047 320.495657,876.079774 Z M335.451721,874.83089 L338.792354,874.523507 C339.343025,874.47188 339.890644,874.420056 340.435211,874.368034 C340.710102,874.341774 340.911657,874.097643 340.885397,873.822752 C340.859137,873.547861 340.615006,873.346306 340.340115,873.372566 L337.039537,873.682001 C336.483335,873.733179 335.924081,873.78416 335.361774,873.834944 C335.086751,873.859782 334.883936,874.102868 334.908774,874.377891 C334.933613,874.652914 335.176698,874.855729 335.451721,874.83089 Z M350.387576,873.358742 L352.898002,873.083851 C353.726299,872.991668 354.546085,872.898933 355.357359,872.805645 C355.631694,872.7741 355.828513,872.526135 355.796967,872.2518 C355.765422,871.977465 355.517457,871.780646 355.243122,871.812192 L352.787339,872.089993 C351.960228,872.182044 351.124598,872.273545 350.280452,872.364496 C350.005899,872.394078 349.80731,872.640628 349.836891,872.915181 C349.866473,873.189734 350.113022,873.388324 350.387576,873.358742 Z M365.291382,871.579448 L367.803172,871.239445 C368.629206,871.12538 369.444012,871.010585 370.247591,870.89506 C370.520923,870.855764 370.710647,870.60233 370.671352,870.328997 C370.632056,870.055665 370.378622,869.865941 370.105289,869.905236 C368.50176,870.135766 366.853271,870.363401 365.159825,870.588139 C364.886083,870.624468 364.693621,870.87583 364.729949,871.149572 C364.766278,871.423315 365.01764,871.615776 365.291382,871.579448 Z M380.14094,869.338362 C381.849298,869.04312 383.491883,868.743579 385.068707,868.439733 C385.339861,868.387483 385.517318,868.125312 385.465068,867.854158 C385.412818,867.583004 385.150647,867.405547 384.879493,867.457797 C383.309088,867.760406 381.6728,868.058799 379.970643,868.352969 C379.698534,868.399996 379.516069,868.658706 379.563095,868.930815 C379.610121,869.202923 379.868831,869.385388 380.14094,869.338362 Z M394.867356,866.284453 C396.602599,865.8443 398.216639,865.396062 399.70957,864.939673 C399.973648,864.858945 400.122282,864.579423 400.041554,864.315344 C399.960825,864.051266 399.681303,863.902632 399.417225,863.98336 C397.940244,864.434874 396.341634,864.878826 394.621488,865.31515 C394.353822,865.383045 394.191876,865.65507 394.259771,865.922736 C394.327665,866.190401 394.599691,866.352348 394.867356,866.284453 Z M409.0629,861.119503 C410.940105,860.014568 412.249749,858.858963 412.986409,857.638901 C413.129141,857.402507 413.053213,857.095165 412.816819,856.952433 C412.580425,856.8097 412.273083,856.885628 412.13035,857.122022 C411.491471,858.180139 410.301709,859.229962 408.555642,860.257708 C408.317664,860.397783 408.238299,860.704256 408.378374,860.942234 C408.518449,861.180212 408.824922,861.259578 409.0629,861.119503 Z M409.112262,848.771122 C407.836823,847.725776 406.523787,846.688936 405.173155,845.660598 C404.953447,845.493317 404.63973,845.535818 404.47245,845.755527 C404.305169,845.975235 404.34767,846.288952 404.567379,846.456232 C405.908574,847.477386 407.212237,848.506824 408.478369,849.544542 C408.691943,849.719587 409.006981,849.688353 409.182026,849.474778 C409.357071,849.261204 409.325837,848.946166 409.112262,848.771122 Z M396.996443,839.843809 C395.624489,838.929791 394.220854,838.022922 392.785537,837.1232 C392.551563,836.976534 392.242993,837.047312 392.096328,837.281286 C391.949662,837.51526 392.02044,837.823829 392.254414,837.970495 C393.681941,838.865334 395.077804,839.767181 396.442003,840.676032 C396.671815,840.829137 396.98223,840.766953 397.135334,840.537141 C397.288439,840.307329 397.226255,839.996913 396.996443,839.843809 Z M384.15791,832.014306 C382.718985,831.208249 381.252999,830.408285 379.75995,829.614414 C379.516131,829.484772 379.213382,829.577331 379.08374,829.82115 C378.954099,830.064969 379.046658,830.367719 379.290477,830.49736 C380.777111,831.287821 382.236681,832.084283 383.669187,832.886745 C383.910104,833.021702 384.21481,832.935804 384.349768,832.694887 C384.484725,832.45397 384.398827,832.149263 384.15791,832.014306 Z M370.822138,825.090471 C369.335393,824.373451 367.8252,823.661704 366.291557,822.955227 C366.040747,822.83969 365.743764,822.949351 365.628227,823.200162 C365.51269,823.450972 365.622352,823.747955 365.873162,823.863492 C367.401479,824.567516 368.90634,825.27675 370.387743,825.991193 C370.636471,826.111148 370.935347,826.006757 371.055302,825.758029 C371.175257,825.509302 371.070866,825.210426 370.822138,825.090471 Z" id="Texture" fill="#5F90CC" fill-rule="nonzero"></path><path d="M301.160924,598.464177 C320.720846,587.104507 343.107306,615.074896 348.358946,626.423437 C353.610587,637.771979 368.509795,637.899143 362.30448,689.311197 C358.167603,723.585899 359.720063,742.115758 366.96186,744.900774 C379.978231,743.049645 383.365744,750.88539 377.124399,768.408009 C367.762381,794.691938 355.446839,794.379409 331.885422,797.29867 C308.324005,800.217931 291.200768,792.309514 281.547187,780.984958 C271.893606,769.660402 293.66692,746.777397 281.547187,725.153652 C276.86572,716.801086 273.407759,665.551811 273.407759,648.811047 C273.407759,632.070283 281.601003,609.823847 301.160924,598.464177 Z" id="Body" fill="url(#linearGradient-24)" fill-rule="nonzero"></path><path d="M307.670891,605.336411 C315.732206,603.495954 343.193449,604.956522 345.75971,629.679168 C347.470551,646.160932 351.355387,662.618821 357.414217,679.052835 C363.362988,693.795442 382.535844,702.66403 414.932784,705.6586 C421.247675,705.281451 425.045276,708.302765 426.325588,714.722541 C427.6059,721.142318 426.786063,727.290762 423.866078,733.167871 C369.868723,743.918187 334.79041,743.918187 318.631139,733.167871 C294.392232,717.042398 279.925042,669.599234 283.660284,642.267833 C287.395526,614.936431 299.609576,607.176868 307.670891,605.336411 Z" id="Shadow" fill="#ABC0FF" fill-rule="nonzero" opacity="0.5"></path><path d="M355.111721,561.806472 C368.335116,573.325705 373.893284,586.858128 371.786226,602.403741 C369.679168,617.949354 358.030931,624.998 336.841516,623.549678 L295.516236,567.979874 L355.111721,561.806472 Z" id="hair" fill="url(#linearGradient-25)" fill-rule="nonzero"></path><path d="M391.546843,534.346926 C391.117547,547.412654 389.859573,556.585323 387.772922,561.864933 C386.358672,565.443244 389.951547,566.532132 387.772922,569.598716 C386.793242,570.977691 380.390313,574.565874 379.355088,575.887637 C369.294529,588.732851 357.193206,598.474558 354.366378,597.302119 C352.287908,596.440064 347.706625,593.09325 340.622531,587.261675 C334.307332,594.854801 331.54889,600.283429 332.347205,603.54756 C333.544677,608.443755 318.664475,615.286304 313.044041,609.416932 C309.297086,605.504017 306.648052,598.841884 305.096939,589.430533 L308.683139,568.430224 L320.040083,547.71145 L336.245965,534.346926 L384.1338,532.242432 L391.546843,534.346926 Z" id="Face" fill="#F2A384" fill-rule="nonzero"></path><path d="M389.431709,534.536421 C385.878515,550.534578 385.176465,561.562256 387.32556,567.619455 C383.825739,571.272743 380.863881,574.127442 378.439987,576.183551 C374.950616,579.143467 424.61102,563.218864 424.61102,537.951007 C424.61102,512.68315 413.281285,511.565523 406.838912,509.537807 C400.396538,507.510091 385.468442,462.969287 346.385739,466.936988 C307.303037,470.904689 317.396534,500.979141 291.322173,517.428019 C265.247812,533.876897 245.076554,563.59668 261.580617,588.011824 C278.08468,612.426969 296.84618,615.180194 323.019519,607.995927 C337.624503,603.987035 336.490166,578.448034 337.880601,554.897264 C337.985263,553.124537 333.184091,553.586902 332.784995,549.013489 C332.385899,544.440076 334.405997,539.345968 337.880601,537.951007 C346.385739,534.536421 358.328483,547.962199 366.576799,546.294894 C385.786423,542.411883 393.404726,538.492392 389.431709,534.536421 Z" id="Hair" fill="url(#linearGradient-26)" fill-rule="nonzero"></path><path d="M427.380424,682.863012 L415.932505,674.100024 L432.170644,660.435605 L435.24268,647.212333 L437.164321,644.859379 C439.921904,645.444987 441.913879,645.281221 443.140246,644.368083 C445.204529,642.831043 448.093522,638.524462 450.374,639.19692 C450.722828,639.29978 453.530709,640.188456 453.752178,640.972208 C454.081727,642.13844 451.795146,643.353399 452.274655,643.670557 C456.214907,646.276729 458.969942,651.742416 456.739675,655.605352 C454.155325,660.081576 449.008999,664.488079 441.300695,668.82486 L427.380424,682.863012 Z" id="Hand" fill="#F2A384" fill-rule="nonzero"></path><path d="M312.670891,599.336411 C320.732206,597.495954 343.639146,602.709167 346.205407,627.431813 C348.771668,652.154459 347.973789,676.262894 356.911618,685.4761 C365.849446,694.689307 372.807032,686.71208 422.691639,667.332934 C429.00653,666.955785 432.804131,669.977098 434.084443,676.396875 C435.364755,682.816652 435.364755,685.84306 434.084443,685.4761 C392.369837,724.652401 362.35355,741.082736 344.03558,734.767103 C316.558625,725.293654 284.925042,663.599234 288.660284,636.267833 C292.395526,608.936431 304.609576,601.176868 312.670891,599.336411 Z" id="Sleeve" fill="url(#linearGradient-27)" fill-rule="nonzero"></path><path d="M872.864652,713.520452 C884.89043,731.572355 943.307756,741.898223 1048.11663,744.498055 L1098.67042,744.498055 L1066.52099,675.418708 L973.769636,632.895732 C894.473869,668.593643 860.838874,695.46855 872.864652,713.520452 Z" id="Jacket" fill="#BF8D30" fill-rule="nonzero"></path><path d="M942.566434,285.307403 L934.168471,285.4453 L933.613849,286.49095 C929.535601,294.231269 927.289214,299.67538 926.874687,302.823283 C926.182057,308.083087 929.155872,312.338637 929.516131,315.527184 C929.989239,319.714527 926.716509,319.971482 928.139162,323.832559 C928.778898,325.5688 934.498919,331.173251 935.213336,332.864582 L935.633465,333.847442 C942.552385,349.844717 952.193235,363.018768 955.434443,362.583403 L955.718381,362.539188 C958.298252,362.087329 963.974075,359.850383 972.745851,355.828349 C982.295211,360.625149 982.376445,370.05637 972.989556,384.122013 L972.702207,384.549663 C958.189836,406.003098 956.245113,420.589235 974.561752,418.452848 C986.772845,417.02859 1006.25506,404.723999 1033.00839,381.539075 C1023.32815,377.151721 1016.83697,372.118974 1013.53486,366.440837 C1010.23274,360.762699 1009.62074,353.581198 1011.69884,344.896335 L1005.62542,319.757845 L992.362991,301.038475 L942.566434,285.307403 Z" id="Face" fill="#F2A384" fill-rule="nonzero"></path><path d="M1006.96603,258.4994 C1020.137,226.466895 1037.07783,211.950665 1057.78853,214.95071 C1088.85459,219.450778 1094.09592,266.617693 1105.78565,273.969139 C1117.47539,281.320584 1161.32332,301.16305 1176.95216,318.807257 C1192.58099,336.451465 1179.79989,362.776042 1200.91793,369.612445 C1222.03596,376.448848 1286.47759,409.748192 1225.01898,483.406304 C1186.64546,529.396956 1090.63166,534.243081 1090.63103,483.404622 C1090.6303,425.270123 1057.7915,451.680557 1040.36518,425.269494 C1022.93885,398.85843 1044.79722,385.909496 1040.36448,369.610436 C1035.93173,353.311376 1021.13398,365.632342 1006.96711,344.738185 C991.793704,322.359515 998.897014,311.629249 1002.93162,292.798576 C1005.62136,280.244793 1006.96616,268.811735 1006.96603,258.4994 Z" id="Hair" fill="url(#linearGradient-28)" fill-rule="nonzero"></path><path d="M971.776247,355.827869 C981.318012,360.613547 981.406422,370.008486 972.041479,384.012687 L971.7548,384.438468 C957.276134,405.798039 955.344957,420.326467 973.638287,418.212436 C985.83384,416.803082 1005.28353,404.56093 1031.98734,381.485981 C1022.31517,377.108069 1015.82779,372.089712 1012.5252,366.43091 C1009.22261,360.772108 1008.60579,353.61781 1010.67474,344.968017 L971.795402,334.619875 C973.708091,338.318229 974.342045,342.059828 973.697266,345.844673 C972.631376,352.101436 959.795654,358.374238 958.847057,360.813273 C958.564319,361.54025 962.874049,359.878448 971.776247,355.827869 Z" id="Neck" fill="url(#linearGradient-29)"></path><path d="M1022.4115,283.925749 C1014.14278,281.71015 1009.40956,272.562238 1011.83957,263.493314 C1014.26959,254.42439 1022.94262,248.868672 1031.21135,251.08427 C1039.48007,253.299868 1044.21329,262.447781 1041.78328,271.516705 C1039.35326,280.585628 1030.68023,286.141347 1022.4115,283.925749 Z" id="hairbands" fill="url(#linearGradient-30)" fill-rule="nonzero"></path><path d="M928.906487,320.793199 C926.452493,324.278237 934.754045,329.449212 936.598243,334.215307 C939.56588,338.492738 861.748238,328.601754 872.396897,278.115467 C883.045555,227.629181 940.011731,248.08784 947.385026,247.774063 C954.75832,247.460286 993.959436,231.356993 1010.33976,241.000887 C1026.59096,250.568755 1036.15952,272.363144 1032.3431,300.476426 C1027.73936,334.389474 1017.74967,352.596696 1010.39839,352.592842 C1002.17909,352.588531 989.526041,346.46817 972.439241,334.231758 C980.19154,332.993667 982.925888,327.85666 980.642284,318.820736 C977.216878,305.26685 964.387646,308.200302 961.604566,318.5869 L957.495493,310.331446 L927.970888,307.234347 C930.593956,313.434228 930.905822,317.953846 928.906487,320.793199 Z" id="Hair" fill="url(#linearGradient-31)" fill-rule="nonzero"></path><path d="M944.550103,864.016116 L947.734395,883.765942 C943.859553,889.023551 939.075164,891.652355 933.381228,891.652355 C927.687292,891.652355 922.618643,890.326697 918.175283,887.675383 L914.985434,866.088834 L944.550103,864.016116 Z" id="Leg" fill="url(#linearGradient-32)" fill-rule="nonzero"></path><path d="M1043.31294,864.016116 L1046.49723,883.765942 C1042.62239,889.023551 1037.838,891.652355 1032.14407,891.652355 C1026.45013,891.652355 1021.38148,890.326697 1016.93812,887.675383 L1013.74827,866.088834 L1043.31294,864.016116 Z" id="Leg" fill="url(#linearGradient-32)" fill-rule="nonzero"></path><path d="M1046.59634,881.056563 C1049.01268,881.056563 1049.01268,889.207135 1049.11781,895.410405 C1049.15608,897.668684 1048.74637,901.109042 1047.88869,905.73148 C1047.53723,907.625689 1045.98925,909.014258 1044.15513,909.080562 C1005.37563,910.482466 982.008423,910.444601 981.93742,908.966968 C978.83912,898.881193 980.526877,897.793292 998.112931,889.881473 C1005.26107,886.665584 1011.82253,885.130054 1016.26788,882.489669 C1017.78845,881.586502 1020.97519,888.888731 1031.48707,888.888731 C1041.99896,888.888731 1044.18,881.056563 1046.59634,881.056563 Z" id="Shoes" fill="url(#linearGradient-33)" fill-rule="nonzero"></path><path d="M947.833502,881.056563 C950.249839,881.056563 950.249839,889.207135 950.354968,895.410405 C950.39324,897.668684 949.983535,901.109042 949.125851,905.73148 C948.774387,907.625689 947.226409,909.014258 945.392291,909.080562 C906.612791,910.482466 883.245584,910.444601 883.17458,908.966968 C880.07628,898.881193 881.764038,897.793292 899.350091,889.881473 C906.498231,886.665584 913.059693,885.130054 917.505042,882.489669 C919.025612,881.586502 922.212353,888.888731 932.724235,888.888731 C943.236117,888.888731 945.417165,881.056563 947.833502,881.056563 Z" id="Shoes" fill="url(#linearGradient-33)" fill-rule="nonzero"></path><path d="M1056.4856,541.36894 C1055.52023,563.0541 1055.52023,575.153219 1056.4856,577.666296 C1057.93366,581.435912 1049.44267,628.467762 1031.01264,718.761846 C1032.59067,806.863831 1045.73166,855.260785 1044.15588,863.95271 C1041.79222,876.990596 1014.31769,876.990226 1010.98373,867.56767 C1008.76109,861.285967 999.562946,810.244378 983.389292,714.442904 L980.55092,639.304788 C969.241276,658.992992 953.422687,685.811503 933.095154,719.760321 C936.42033,813.201846 949.030407,862.659055 944.645679,868.131949 C940.737819,873.009631 914.985434,876.452424 913.440053,868.132913 C897.766329,803.674518 889.930314,753.88869 889.932007,718.775429 C889.9337,683.662168 906.075344,624.526672 938.356937,541.36894 L1056.4856,541.36894 Z" id="Pants" fill="url(#linearGradient-34)" fill-rule="nonzero"></path><path d="M1032.09328,587.575463 L1033.08712,587.653729 L1033.08712,861.943398 L1032.09193,862.01258 L1012.98345,725.23807 C1012.14236,719.217689 1012.19849,713.105872 1013.15003,707.101956 L1032.09328,587.575463 Z M1032.08712,594.002819 L1014.1377,707.258488 C1013.20164,713.164779 1013.14642,719.177217 1013.97383,725.099706 L1032.08712,854.750846 L1032.08712,594.002819 Z" id="Texture" fill="#1542AB" fill-rule="nonzero"></path><path d="M933.113673,719.729392 L932.724235,719.616769 L965.573867,627.035369 C967.763843,628.877785 972.756194,632.967591 980.55092,639.304788 C969.244711,658.987013 953.432295,685.795214 933.113673,719.729392 Z" id="Shadow" fill="url(#linearGradient-35)" fill-rule="nonzero"></path><path d="M973.927854,382.071141 C967.306161,392.597889 962.716124,399.668393 970.783019,403.57303 C978.849915,407.477667 997.133475,398.10488 1025.6337,375.454667 C1060.08181,388.512927 1063.61782,398.88364 1070.67455,406.566808 C1077.73128,414.249975 1051.70842,557.739689 1041.29624,567.233243 C1026.18432,581.011892 1003.35332,585.794668 975.670956,582.079345 C956.01994,579.441931 942.227691,561.373589 944.865105,541.722573 C944.929394,541.243565 945.003349,540.765903 945.086926,540.289881 C948.424125,521.282383 950.092844,509.515288 950.09309,504.988596 C950.093609,495.422556 945.007802,472.0733 934.835671,434.940829 L957.242419,388.556556 L973.927854,382.071141 Z" id="Body" fill="url(#linearGradient-36)" fill-rule="nonzero"></path><path d="M1035.01134,416.709575 C1019.30985,476.43295 1016.61011,523.735945 1026.91214,558.61856 C1042.36517,610.942483 1017.17092,671.748777 1023.0821,700.625837 C1052.53313,703.694977 1078.2496,718.605344 1100.2315,745.356939 C1109.52324,733.449902 1113.68701,707.301825 1112.72283,666.912708 C1111.27654,606.329033 1096.77226,602.959748 1094.53493,575.38107 C1093.04337,556.995284 1093.04337,534.11223 1094.53493,506.731908 L1073.92995,403.236102 C1064.10096,395.120386 1056.45294,389.404424 1050.98588,386.088214 C1045.51882,382.772005 1038.45871,379.566313 1029.80555,376.47114 L1035.01134,416.709575 Z" id="Jacket" fill="url(#linearGradient-37)" fill-rule="nonzero"></path><path d="M1078.04082,423.884509 L1094.53493,506.731908 L1094.39074,509.454949 C1093.04503,535.63277 1093.09309,557.608144 1094.53493,575.38107 C1094.6604,576.927667 1094.82444,578.398129 1095.0226,579.806814 C1076.65774,603.817873 1056.33946,612.450701 1043.06523,615.250586 L1042.66515,615.333655 C1038.97801,616.087038 1038.15809,614.285915 1030.62718,622.023909 L1030.70113,621.31088 C1031.64386,611.987594 1032.19164,602.437324 1031.9493,592.88264 L1032.54971,591.096345 C1032.85611,590.191277 1033.17167,589.268326 1033.49588,588.327479 C1058.6185,552.671011 1070.13045,528.809781 1068.03172,516.743791 C1065.933,504.6778 1060.97755,491.702597 1053.16539,477.818183 C1045.50964,467.532484 1045.50964,450.63565 1053.16539,427.12768 C1055.55691,419.7842 1064.72258,417.145715 1078.04082,423.884509 Z" id="Path" fill="#EEB84E" fill-rule="nonzero" opacity="0.5"></path><path d="M1047.40403,602.123426 L1033.86024,616.525142 C1029.79512,624.380101 1025.5709,629.677078 1021.1876,632.416071 C1017.40485,634.779793 1011.84634,632.217187 1009.10425,628.370289 C1008.54629,627.587528 1004.85305,627.485347 1004.567,626.62692 C1003.81537,624.371299 1007.38305,621.224761 1009.48256,619.217101 C1012.61096,616.225571 1008.71813,616.716773 1010.23201,613.488053 C1011.24126,611.335573 1016.21641,609.404033 1025.15746,607.693434 L1038.24685,590.988305 L1047.40403,602.123426 Z" id="Hand" fill="#F2A384" fill-rule="nonzero"></path><path d="M1053.16539,457.818183 C1045.50964,447.532484 1045.50964,430.63565 1053.16539,407.12768 C1055.8789,398.795511 1067.31341,396.520535 1083.63954,407.12768 C1103.21048,419.843002 1127.49375,480.650785 1113.5423,520.294659 C1087.95253,593.009525 1064.77014,594.519138 1050.45189,603.653431 C1040.90639,609.74296 1035.42242,605.753329 1034,591.684538 C1060.90505,552.56784 1073.30822,526.976495 1071.20949,514.910504 C1069.11077,502.844513 1063.09607,483.81374 1053.16539,457.818183 Z" id="Path-46" fill="url(#linearGradient-38)" fill-rule="nonzero"></path><path d="M800.87814,368.863012 L786.957869,354.82486 C779.249566,350.488079 774.103239,346.081576 771.51889,341.605352 C769.288623,337.742416 772.043657,332.276729 775.983909,329.670557 C776.785666,329.140257 766.64998,317.69175 767.517867,317.435831 C769.798345,316.763373 783.185154,328.199784 785.118318,330.368083 C787.998847,333.598977 787.643802,329.691382 790.817721,331.317018 C792.933668,332.400775 794.690401,337.440304 796.08792,346.435605 L812.326059,360.100024 L800.87814,368.863012 Z" id="Hand" fill="#F2A384" fill-rule="nonzero"></path><path d="M965.17794,387.979684 C957.672272,407.740582 952.579662,421.762073 949.900112,430.044158 C945.878077,442.47566 944.317045,452.728273 945.217017,460.801999 C947.916025,485.01502 955.425141,492.945252 948.919777,550.864366 C946.376459,573.508254 932.096536,605.385442 929.340987,630.63385 C925.048323,669.966462 935.603953,683.573346 932.959823,690.078684 C929.340987,698.982083 890.717913,690.800145 871.38965,711 C865.164989,698.982083 888.813411,656.607404 888.813411,650.134849 C888.813411,643.662295 889.618682,595.053336 909.479834,559.396438 C922.720603,535.625172 927.779814,500.852832 924.657468,455.079417 C891.380792,448.679717 867.041898,440.33463 851.640783,430.044158 C836.239669,419.753686 816.692741,397.552502 793,363.440608 C796.534881,354.480203 800.588568,350 805.161061,350 C812.019801,350 858.489995,392.183781 894.418452,397.301039 C909.479834,399.446218 921.574394,390.543649 932.959823,387.979684 C951.072853,383.900683 964.263501,384.055432 966.458988,383.304222 C968.842667,382.48862 970.023004,383.09853 970,385.13395 L965.17794,387.979684 Z" id="Jacket" fill="url(#linearGradient-39)" fill-rule="nonzero"></path><path d="M929.491217,430 C930.602766,430.938396 929.892996,434.035103 927.361906,439.290121 C925.343807,443.480075 924.083629,448.67363 923.581372,454.870785 C906.320158,451.510244 891.491203,447.619467 879.095571,443.199056 C893.784843,443.751346 910.583453,439.351559 929.491217,430 Z" id="Path" fill="#EEB84E" fill-rule="nonzero" opacity="0.5"></path><path d="M608.574481,507.307649 C605.483344,517.301805 602.996556,523.916079 601.114118,527.15047 C598.290461,532.002056 603.314959,544.208245 615.613478,544.208245 C623.812492,544.208245 637.219768,540.477807 655.835306,533.016932 C651.765362,528.60052 648.848376,523.659124 647.084346,518.192745 C645.320317,512.726366 645.320317,506.131325 647.084346,498.407622 C656.512639,476.337191 660.241918,462.917591 658.272186,458.148823 C656.302453,453.380055 645.714019,445.254347 626.506885,433.7717 C606.463733,442.02891 596.442158,449.267118 596.442158,455.486326 C596.442158,461.705534 596.442158,467.23486 596.442158,472.074303 C590.595641,469.547053 587.672383,471.527824 587.672383,478.016617 C587.672383,484.505409 591.451225,488.943033 599.008907,491.32949 L608.574481,507.307649 Z" id="Neck" fill="#B06C57" fill-rule="nonzero"></path><path d="M632.943657,406.857797 C638.714606,409.901123 656.217241,414.976558 659.308736,419.765879 C663.378171,426.070217 664.282987,432.517714 662.023183,439.108369 C668.71534,448.305113 668.71534,461.272649 662.023183,478.010976 C651.984947,503.118467 645.462588,505.652604 632.943657,507.221084 C620.424726,508.789565 611.412502,495.084775 607.198169,484.879929 C604.388613,478.076698 600.728654,473.231132 596.21829,470.34323 C594.775331,458.731127 594.053851,452.925076 594.053851,452.925076 C594.053851,452.925076 581.199943,451.686884 581.199943,429.761815 C581.199943,407.836745 596.21829,387.490567 632.943657,406.857797 Z" id="Hair" fill="url(#linearGradient-40)" fill-rule="nonzero"></path><path d="M746.361238,809.11099 C747.581955,808.289303 764.878114,809.188127 762.831085,818.456277 C760.784057,827.724426 760.095709,831.385734 759.812572,835.161943 C759.623814,837.679415 758.358664,839.66095 756.017123,841.106547 L744.644433,835.161943 L742.393017,826.496482 C744.224687,815.453945 745.547427,809.658781 746.361238,809.11099 Z" id="Leg" fill="#B06C57" fill-rule="nonzero"></path><path d="M739.757873,822.531545 C743.126803,822.004416 744.162047,831.176047 749.463665,832.898647 C754.765283,834.621247 760.420856,828.43636 761.537972,829.608328 C764.803833,833.034547 770.213953,835.94257 775.722579,840.514781 C789.275053,851.76346 790.493668,853.142028 785.240082,861.606645 C784.575677,863.651472 766.56512,858.92984 731.208409,847.441749 C731.167073,842.70129 731.693565,838.457489 732.787886,834.710345 C734.429368,829.089629 736.388943,823.058675 739.757873,822.531545 Z" id="Shoes" fill="url(#linearGradient-41)" fill-rule="nonzero"></path><path d="M671.104099,803.90311 C671.639177,804.725336 671.25904,809.781391 669.963689,819.071276 L664.505385,826.168176 L651.714027,827.196549 C653.485246,826.130168 654.775807,824.401427 655.58571,822.010328 C656.800563,818.423679 657.243589,816.234818 658.980644,806.903604 C660.717699,797.572389 670.301482,802.669772 671.104099,803.90311 Z" id="Leg" fill="#B06C57" fill-rule="nonzero"></path><path d="M669.184034,817.326856 C672.988153,817.67222 674.508235,819.517106 676.078865,825.007675 C677.125951,828.668054 677.500979,832.851187 677.203948,837.557075 C660.92172,841.947044 651.198812,843.533346 648.035223,842.315981 C635.2917,837.412211 646.476953,820.695246 648.369237,818.960104 C649.701689,817.738305 652.950218,815.413517 659.071285,813.424662 C665.192353,811.435807 665.379914,816.981492 669.184034,817.326856 Z" id="Shoes" fill="url(#linearGradient-42)" fill-rule="nonzero"></path><path d="M725.181254,686.052885 C763.683503,668.759886 791.301715,668.759886 808.035889,686.052885 C833.137151,711.992384 774.51557,804.844968 770.528576,816.572095 C766.541582,828.299221 755.45029,820.773506 751.252809,819.65244 C748.454488,818.905063 745.915958,816.571736 743.637219,812.652461 L761.794966,738.684511 L716.153061,732.497094 L703.076674,703.955677 L725.181254,686.052885 Z" id="Pants" fill="#111AA7" fill-rule="nonzero"></path><path d="M635.181254,686.052885 C678.493782,665.801001 704.046025,660.73803 711.837982,670.863972 C723.525919,686.052885 733.537828,735.980426 675.054346,809.838401 C670.838421,812.821469 667.093536,814.078425 663.819689,813.609267 C660.545843,813.140109 657.818353,810.154507 655.637219,804.652461 L671.794966,738.684511 L626.153061,732.497094 L613.076674,703.955677 L635.181254,686.052885 Z" id="Pants" fill="#111AA7" fill-rule="nonzero"></path><path d="M601.194458,529.937888 C619.724487,538.412351 630.998863,540.530967 635.017585,536.293735 C639.036307,532.056504 640.807575,528.923673 640.331389,526.895244 C676.134856,529.9176 697.946385,539.647755 705.765975,556.085711 C717.495359,580.742643 748.501213,662.959791 762.018233,646.508708 C771.02958,635.541319 777.314545,626.470318 780.873128,619.295708 C774.947932,613.80027 771.985334,610.455199 771.985334,609.260493 C771.985334,607.468435 777.906693,607.373515 780.873128,608.317004 C783.839564,609.260493 783.286387,587.66439 785.155875,586.244498 C786.4022,585.297903 787.984594,590.369301 789.903056,601.458694 C792.745963,589.528013 794.67335,583.80208 795.685217,584.280896 C796.697084,584.759712 796.697084,591.397684 795.685217,604.194813 C800.699329,598.263175 803.589647,595.757115 804.356171,596.676632 C805.122694,597.596148 803.639986,601.790769 799.908047,609.260493 C804.519899,607.57181 806.825826,607.257313 806.825826,608.317004 C806.825826,609.376695 804.519899,611.513555 799.908047,614.727586 L795.685217,622.579987 C785.426699,662.429482 770.523363,683.581005 750.975211,686.034558 C731.427058,688.488111 723.639842,688.488111 727.613563,686.034558 C732.39008,692.591304 734.12531,698.072971 732.819252,702.479559 C730.860166,709.089441 717.712851,742.045722 704.010142,747.601924 C694.875002,751.306058 668.810795,741.907344 625.81752,719.405781 L553.169231,652.379507 L546.00725,578.908511 C478.154863,540.441062 441.329832,489.993122 435.532159,427.564691 L432.620298,418.241238 C425.868295,410.911353 422.291283,406.742592 421.889262,405.734955 C421.487242,404.727318 423.649792,405.350829 428.376914,407.605486 C425.982605,400.815103 425.097294,397.061091 425.720982,396.343448 C426.34467,395.625806 428.644442,397.752278 432.620298,402.722864 C432.913221,394.062027 433.544943,389.552877 434.515465,389.195414 C435.485986,388.837952 436.943116,392.577736 438.886853,400.414766 C439.793272,393.504949 440.718362,390.443829 441.662121,391.231405 C442.605881,392.018981 443.461397,397.477008 444.228669,407.605486 C447.965421,404.350405 450.047676,403.303204 450.475436,404.463882 C450.903196,405.624561 449.80111,409.669668 447.169178,416.599204 C475.153034,463.147501 498.739512,490.480224 517.928615,498.597374 C537.117717,506.714523 565.603857,515.074474 603.387036,523.677227 L601.194458,529.937888 Z" id="Body" fill="#B06C57" fill-rule="nonzero"></path><path d="M619.839596,544 C631.326914,547.2484 642.555438,542.007673 653.525167,528.277819 C680.532782,530.378458 697.946385,539.647755 705.765975,556.085711 C712.638731,570.533279 726.129673,604.742983 738.842657,627.286058 C744.831738,637.90609 733.806177,649.832862 705.765975,663.066373 C714.104881,675.690053 722.512616,683.882139 730.989179,687.642633 C733.86487,690.346098 733.86487,698.951685 732.819252,702.479559 C730.860166,709.089441 717.712851,742.045722 704.010142,747.601924 C694.875002,751.306058 668.810795,741.907344 625.81752,719.405781 L553.169231,652.379507 L544.080248,579.713856 C520.881718,570.946811 508.627534,563.89077 507.317696,558.545732 C497.484988,518.421546 518.315263,496.049546 535.17032,503.179376 C554.359422,511.296525 577.325907,517.305846 604.069774,521.207337 C603.09567,533.154046 608.352278,540.7516 619.839596,544 Z" id="Body" fill="url(#linearGradient-43)" fill-rule="nonzero"></path><path d="M581.735046,640.46674 C580.234157,634.865346 583.558273,629.107808 589.159667,627.606919 C594.761061,626.10603 600.5186,629.430146 602.019489,635.031541 C603.304222,639.826232 601.053651,644.735332 596.865663,646.991213 C593.995833,647.400768 591.196223,647.640962 588.506523,647.694557 C585.299173,646.604225 582.67765,643.984588 581.735046,640.46674 Z M534.126531,552.571162 C528.525137,554.072051 522.767599,550.747935 521.26671,545.146541 C519.765821,539.545147 523.089937,533.787609 528.691331,532.28672 C534.292725,530.785831 540.050263,534.109947 541.551152,539.711341 C543.052041,545.312735 539.727925,551.070273 534.126531,552.571162 Z M582.247613,595.068835 C576.646219,596.569725 570.888681,593.245608 569.387792,587.644214 C567.886903,582.04282 571.211019,576.285282 576.812413,574.784393 C582.413807,573.283504 588.171345,576.60762 589.672234,582.209014 C591.173123,587.810408 587.849007,593.567946 582.247613,595.068835 Z M579.675392,544.900291 C574.073998,546.40118 568.31646,543.077064 566.815571,537.47567 C565.314682,531.874276 568.638798,526.116737 574.240192,524.615848 C579.841586,523.114959 585.599124,526.439076 587.100013,532.04047 C588.600902,537.641864 585.276786,543.399402 579.675392,544.900291 Z M688.091947,727.574866 C686.591058,721.973472 689.915174,716.215934 695.516568,714.715045 C701.117962,713.214156 706.8755,716.538272 708.376389,722.139666 C709.661123,726.934358 707.410552,731.843457 703.222564,734.099339 C700.352734,734.508894 697.553124,734.749088 694.863424,734.802682 C691.656074,733.712351 689.034551,731.092713 688.091947,727.574866 Z M640.483432,639.679288 C634.882038,641.180177 629.1245,637.856061 627.623611,632.254667 C626.122722,626.653273 629.446838,620.895734 635.048232,619.394845 C640.649626,617.893956 646.407164,621.218073 647.908053,626.819467 C649.408942,632.420861 646.084826,638.178399 640.483432,639.679288 Z M688.604514,682.176961 C683.00312,683.67785 677.245582,680.353734 675.744693,674.75234 C674.243804,669.150946 677.56792,663.393408 683.169314,661.892519 C688.770708,660.39163 694.528246,663.715746 696.029135,669.31714 C697.530024,674.918534 694.205908,680.676072 688.604514,682.176961 Z M686.032293,632.008416 C680.430899,633.509305 674.673361,630.185189 673.172472,624.583795 C671.671583,618.982401 674.995699,613.224863 680.597093,611.723974 C686.198487,610.223085 691.956025,613.547201 693.456914,619.148595 C694.957803,624.749989 691.633687,630.507527 686.032293,632.008416 Z M640.483432,589.449898 C634.882038,590.938628 629.1245,587.641441 627.623611,582.085425 C626.122722,576.529408 629.446838,570.818513 635.048232,569.329783 C640.649626,567.841053 646.407164,571.13824 647.908053,576.694256 C649.408942,582.250272 646.084826,587.961168 640.483432,589.449898 Z M686.032293,581.841169 C680.430899,583.329899 674.673361,580.032712 673.172472,574.476696 C671.671583,568.92068 674.995699,563.209785 680.597093,561.721054 C686.198487,560.232324 691.956025,563.529511 693.456914,569.085528 C694.957803,574.641544 691.633687,580.352439 686.032293,581.841169 Z" id="Texture" fill="url(#linearGradient-44)" fill-rule="nonzero"></path><polygon id="Chair-base" fill="#D2D9FF" fill-rule="nonzero" points="687 766 699 766 699 815 687 815"></polygon><circle id="Wheel" fill="url(#linearGradient-45)" fill-rule="nonzero" cx="628" cy="878" r="9"></circle><circle id="Wheel" fill="url(#linearGradient-45)" fill-rule="nonzero" cx="754" cy="878" r="9"></circle><circle id="Wheel" fill="url(#linearGradient-45)" fill-rule="nonzero" cx="693" cy="888" r="9"></circle><path d="M680.881887,825.913896 L680.188938,818.462114 C680.174936,818.311537 680.169484,818.160287 680.172609,818.009093 C680.218258,815.800425 682.045743,814.046953 684.25441,814.092602 L701.443757,814.447876 C701.518609,814.449423 701.593402,814.453071 701.668048,814.458816 C703.870673,814.628338 705.518829,816.551342 705.349308,818.753968 L704.856692,825.154617 L759.584615,862.718959 C759.733073,862.820858 759.876958,862.929265 760.015849,863.043861 C762.620938,865.193279 762.990334,869.047569 760.840916,871.652659 C758.375307,874.640971 754.131549,875.45059 750.738946,873.579898 L703.149318,847.338837 L700.543567,881.195842 C700.252323,884.980029 697.146574,887.931063 693.352453,888.028726 C689.593853,888.125475 686.403546,885.292351 686.055417,881.548658 L682.787192,846.403038 L633.500439,873.579898 C630.107837,875.45059 625.864078,874.640971 623.39847,871.652659 C621.249052,869.047569 621.618447,865.193279 624.223537,863.043861 C624.362428,862.929265 624.506312,862.820858 624.65477,862.718959 L680.467253,824.410193 L680.881887,825.913896 Z" id="Chair-base" fill="url(#linearGradient-46)" fill-rule="nonzero"></path><path d="M552.228569,583.789352 C546.174439,580.409022 536.921411,583.574303 533.998715,587.816541 C534.93935,593.814866 535.534428,596.40731 535.560094,596.545696 C545.066358,647.803503 581.901976,697.156123 610.571542,728.044815 C626.914289,745.652549 640.767073,759.698822 652.129895,770.183635 C663.159473,771.900845 673.310816,770.724534 682.583926,766.654702 C688.629347,764.001455 698.109893,764.782432 697.839891,756.468564 C697.283362,739.331959 682.059315,730.676608 676.051306,705.85559 C670.414878,682.569693 676.754704,635.134306 659.719506,625.369899 C642.684307,615.605492 621.34958,632.554417 588.836135,618.435078 C565.836797,608.44735 558.2827,587.169683 552.228569,583.789352 Z" id="Chair-base" fill="url(#linearGradient-47)" fill-rule="nonzero"></path><path d="M722.174205,726.859317 C738.485582,722.38042 760.54703,717.446901 771.719895,726.859317 C782.89276,736.271733 777.75614,751.397339 770.280615,759.906295 C765.296931,765.578933 743.188084,771.030726 703.954073,776.261673 L700.468115,747.56524 C709.936643,743.523715 717.172006,736.621741 722.174205,726.859317 Z" id="Chair-base" fill="#111AA7" fill-rule="nonzero"></path><path d="M533.871245,587.254742 C541.272874,646.112073 547.699077,684.838749 553.149854,703.434768 C561.416438,731.637269 571.948205,743.511866 583.316252,754.821585 C594.684299,766.131303 637.196903,785.837694 671.160029,787.582314 C701.220272,789.12645 743.199035,780.341062 758.727172,770.683347 C774.25531,761.025633 782.288441,740.320483 764.731805,735.172133 C747.17517,730.023783 690.580193,751.223977 685.24863,748.910956 C655.584191,736.041474 664.627036,646.754422 650.326223,637.285713 C636.73372,628.285983 607.74698,639.842667 572.836135,624.435078 C562.603391,619.918948 549.615095,607.525502 533.871245,587.254742 Z" id="Chair-base" fill="url(#linearGradient-48)" fill-rule="nonzero"></path><ellipse id="Shadow" fill="#E2EBFC" opacity="0.806164985" cx="1249" cy="897.5" rx="89" ry="15.5"></ellipse><path d="M1293.56922,539.251306 C1276.09146,536.072423 1270.96057,576.067809 1264.26629,581.814984 C1257.5867,587.510923 1243.86371,585.884135 1241.29958,601.738769 C1238.73545,617.593402 1251.52952,620.706354 1249.3859,633.873023 C1247.24228,647.039692 1219.27506,637.220503 1215.93958,658.018209 C1212.6041,678.815915 1232.78507,691.198596 1230.7538,703.720593 C1228.72254,716.24259 1216.50005,717.87995 1212.03055,745.601412 C1207.56105,773.322875 1228.11794,785.161018 1260.49963,796.980832 C1292.88131,808.800645 1315.98105,805.638498 1321.0519,775.819851 C1326.12276,746.001203 1290.79164,736.769867 1291.00549,719.671236 C1291.20376,702.626964 1315.89424,700.401396 1319.12414,681.261957 C1322.35405,662.122519 1288.67667,653.388562 1291.21835,638.089808 C1293.76003,622.791055 1322.24523,622.215886 1324.91799,606.330889 C1327.59075,590.445891 1321.60344,586.25136 1310.58638,577.361275 C1299.54083,568.570588 1311.04699,542.430189 1293.56922,539.251306 Z" id="Leaf" fill="url(#linearGradient-49)" fill-rule="nonzero"></path><path d="M1261.36236,782.294404 C1261.99883,782.706377 1262.74099,782.427121 1263.02008,781.67038 C1263.29922,780.913481 1263.00932,779.966709 1262.37248,779.555994 C1247.06431,769.739925 1240.87192,756.972696 1243.51542,740.827879 C1243.64857,740.014652 1243.20044,739.172874 1242.51448,738.947714 C1241.82852,738.722554 1241.16482,739.198154 1241.03206,740.009997 C1238.15479,757.605031 1245.03889,771.79301 1261.36236,782.294404 Z" id="leaves-base" fill="#98BBE9" fill-rule="nonzero"></path><path d="M1270.10346,715.392727 C1270.81349,715.536588 1271.40732,714.969006 1271.42976,714.125167 C1271.45217,713.281448 1270.89439,712.482091 1270.18397,712.339585 C1258.67623,710.021588 1250.98068,700.668794 1246.90683,684.028139 C1246.70242,683.200571 1245.98278,682.634757 1245.29963,682.763821 C1244.61655,682.892618 1244.22884,683.666744 1244.43351,684.493417 C1248.81141,702.345427 1257.40878,712.808983 1270.10346,715.392727 Z" id="leaves-base" fill="#98BBE9" fill-rule="nonzero"></path><path d="M1271.79584,623.267268 C1272.28816,623.33546 1272.69876,622.936156 1272.7129,622.375477 C1272.72703,621.814851 1272.33921,621.305664 1271.8467,621.238096 C1265.90602,620.420511 1261.93972,616.005535 1259.82934,607.785305 C1259.68815,607.237869 1259.1903,606.883931 1258.71743,606.994515 C1258.2446,607.104975 1257.9759,607.637771 1258.1172,608.184794 C1260.43673,617.209088 1265.02976,622.326794 1271.79584,623.267268 Z" id="leaves-base" fill="#98BBE9" fill-rule="nonzero"></path><path d="M1275.3427,613.217804 C1274.86548,613.055248 1274.612,612.497876 1274.77655,611.972802 C1274.94112,611.447673 1275.46155,611.153182 1275.93894,611.315114 C1281.69732,613.27108 1286.77654,610.944837 1291.36214,604.137362 C1291.66851,603.681853 1292.2437,603.568458 1292.64678,603.884334 C1293.04983,604.200334 1293.12804,604.826299 1292.82154,605.28222 C1287.78318,612.764708 1281.90106,615.455316 1275.3427,613.217804 Z" id="leaves-base" fill="#98BBE9" fill-rule="nonzero"></path><path d="M1270.8557,694.862628 C1270.16985,694.592181 1269.8135,693.746315 1270.05982,692.973164 C1270.30617,692.199892 1271.06222,691.791045 1271.74846,692.060147 C1281.9161,696.05552 1290.99361,692.116993 1299.26669,679.906958 C1299.71865,679.238112 1300.55271,679.095162 1301.12945,679.588203 C1301.70612,680.081508 1301.80688,681.024768 1301.35466,681.694502 C1292.41269,694.899171 1282.17027,699.334349 1270.8557,694.862628 Z" id="leaves-base" fill="#98BBE9" fill-rule="nonzero"></path><path d="M1271.19646,768.36048 C1270.52006,768.057076 1270.17165,767.183512 1270.41831,766.409152 C1270.66501,765.634671 1271.41368,765.25156 1272.09047,765.553619 C1282.11806,770.037402 1291.10273,766.422647 1299.3281,754.379003 C1299.77746,753.719229 1300.60203,753.609337 1301.16969,754.134085 C1301.73726,754.659097 1301.83276,755.620706 1301.38314,756.281368 C1292.49272,769.306267 1282.35509,773.376022 1271.19646,768.36048 Z" id="leaves-base" fill="#98BBE9" fill-rule="nonzero"></path><path d="M1251.16681,837.270005 C1250.98571,838.363638 1251.5762,839.543487 1252.48571,839.905272 C1253.39522,840.267057 1255.51524,840.162321 1255.69732,839.065286 C1255.48763,831.877265 1256.35553,822.376156 1258.30356,810.553087 C1261.22552,792.818833 1275.02071,766.327672 1276.53244,746.053417 C1278.0308,725.825767 1266.72278,683.487177 1267.07061,652.920075 C1267.31336,628.476829 1277.41949,608.877923 1282.17604,595.194322 L1282.34764,594.696344 C1287.04043,580.948165 1288.68365,563.655663 1288.37103,563.593251 C1287.997,563.519156 1286.2329,581.234771 1281.39259,594.485666 C1276.56564,607.689973 1267.79357,624.448676 1265.32368,644.979407 C1260.70795,683.260581 1275.83819,722.522629 1271.67221,747.613918 C1267.50624,772.705207 1257.82421,785.877483 1253.114,807.556333 L1252.82295,808.91736 C1249.94037,822.615006 1249.39025,832.059181 1251.16681,837.270005 Z" id="leaves-base" fill="#8FAFDA" fill-rule="nonzero"></path><path d="M1170.06465,555.455816 C1186.96918,550.287582 1197.81742,590.53831 1205.36756,595.836799 C1212.9177,601.135289 1226.53161,598.462754 1231.47173,614.621134 C1236.41184,630.779513 1223.83022,634.626099 1227.89738,647.929187 C1231.96455,661.232276 1259.23588,650.213632 1265.78618,671.638704 C1272.33648,693.063775 1253.15517,705.810963 1257.04163,718.523009 C1260.92809,731.235055 1273.96925,733.093278 1282.64138,761.458517 C1291.3135,789.823755 1271.04889,800.599508 1238.1661,810.652785 C1205.28332,820.706062 1180.53647,816.917092 1171.86434,788.551853 C1163.19222,760.186615 1198.83246,751.193686 1196.49018,734.52694 C1194.14789,717.860193 1168.41447,716.260947 1162.78616,697.851562 C1157.15785,679.442178 1190.4183,669.273436 1185.81951,654.231474 C1181.22072,639.189512 1152.33073,640.558858 1147.63966,625.215066 C1142.9486,609.871275 1148.40967,605.200852 1158.27812,595.383924 C1168.14658,585.566996 1153.16012,560.62405 1170.06465,555.455816 Z" id="Leaf" fill="url(#linearGradient-50)" fill-rule="nonzero"></path><path d="M1235.40168,796.23201 C1234.78068,796.61178 1233.96067,796.310147 1233.57014,795.558293 C1233.1796,794.80644 1233.36643,793.889077 1233.98743,793.509307 C1248.90147,784.388654 1253.74915,771.906133 1248.79947,755.71646 C1248.55015,754.900974 1248.90733,754.068898 1249.59725,753.857967 C1250.28718,753.647036 1251.04859,754.137124 1251.29791,754.95261 C1256.70139,772.626598 1251.31297,786.501493 1235.40168,796.23201 Z" id="Leaves-base" fill="#5ACE87" fill-rule="nonzero"></path><path d="M1217.25497,730.569118 C1216.53459,730.734953 1215.86128,730.193181 1215.75109,729.359035 C1215.64091,728.524889 1216.13558,727.714244 1216.85596,727.548409 C1228.52781,724.861512 1235.48927,715.247099 1237.86588,698.336642 C1237.98456,697.492197 1238.66367,696.889559 1239.3827,696.990613 C1240.10174,697.091667 1240.58842,697.858146 1240.46975,698.702591 C1237.91812,716.858381 1230.13802,727.603399 1217.25497,730.569118 Z" id="Leaves-base" fill="#5ACE87" fill-rule="nonzero"></path><path d="M1203.36583,638.526898 C1202.87426,638.638094 1202.41408,638.271592 1202.33798,637.708293 C1202.26188,637.144993 1202.59867,636.598206 1203.09024,636.487009 C1209.02025,635.145576 1212.54278,630.328806 1213.74311,621.78802 C1213.82322,621.21801 1214.28613,620.811858 1214.77706,620.880853 C1215.26798,620.949848 1215.60102,621.467864 1215.52091,622.037873 C1214.20244,631.419272 1210.12231,636.998507 1203.36583,638.526898 Z" id="Leaves-base" fill="#5ACE87" fill-rule="nonzero"></path><path d="M1198.87206,628.479358 C1192.41602,630.990445 1185.91357,628.646625 1179.5745,621.606372 C1179.18934,621.178609 1179.17577,620.562926 1179.54418,620.231204 C1179.91259,619.899483 1180.52349,619.97734 1180.90864,620.405102 C1186.67971,626.814519 1192.29352,628.83803 1197.95985,626.634106 C1198.42955,626.451414 1199.01453,626.716386 1199.26643,627.225939 C1199.51833,627.735491 1199.34177,628.296666 1198.87206,628.479358 Z" id="Leaves-base" fill="#5ACE87" fill-rule="nonzero"></path><path d="M1214.67779,709.939277 C1203.35274,714.268642 1191.88662,710.041962 1180.58899,697.494667 C1180.01885,696.861473 1179.99113,695.956981 1180.52706,695.474427 C1181.06299,694.991873 1181.95963,695.113992 1182.52976,695.747186 C1192.9866,707.360687 1203.1458,711.105604 1213.31691,707.217368 C1214.00324,706.954996 1214.86427,707.351622 1215.24006,708.103257 C1215.61586,708.854891 1215.36412,709.676905 1214.67779,709.939277 Z" id="Leaves-base" fill="#5ACE87" fill-rule="nonzero"></path><path d="M1223.76818,782.351089 C1212.44313,786.680454 1200.977,782.453773 1189.67937,769.906479 C1189.10924,769.273285 1189.08151,768.368793 1189.61744,767.886239 C1190.15337,767.403685 1191.05001,767.525803 1191.62014,768.158998 C1202.07699,779.772499 1212.23618,783.517416 1222.4073,779.62918 C1223.09363,779.366808 1223.95465,779.763434 1224.33045,780.515069 C1224.70624,781.266703 1224.45451,782.088717 1223.76818,782.351089 Z" id="Leaves-base" fill="#5ACE87" fill-rule="nonzero"></path><path d="M1253.15611,850.568859 C1253.48633,851.648957 1252.99894,852.7554 1252.0675,853.04017 C1251.13606,853.32494 1248.84839,853.066916 1248.51817,851.986818 C1247.85625,845.00537 1245.75001,835.686828 1242.19943,824.031192 C1236.87357,806.547738 1218.9966,780.192421 1214.87198,760.343772 C1210.74736,740.495124 1216.94289,698.4682 1212.45795,667.903612 C1208.80871,643.03426 1195.57507,623.742943 1188.96506,610.295478 L1188.57156,609.484215 C1182.19547,596.164208 1178.32851,579.579282 1178.6262,579.487748 C1178.98963,579.377157 1183.20509,597.066985 1189.89853,610.010087 C1196.59197,622.953188 1207.80646,639.299205 1213.15906,659.856186 C1223.12307,698.123634 1212.60721,737.244629 1220.15612,761.935985 C1227.70502,786.62734 1239.60041,799.88856 1247.35069,821.387051 L1247.81845,822.696956 C1252.63356,836.31362 1254.41278,845.604254 1253.15611,850.568859 Z" id="Leaves-base" fill="#42B16D" fill-rule="nonzero"></path><path d="M1367.05911,613.371331 C1351.45131,605.072515 1335.94671,637.201636 1328.01744,640.034649 C1320.08818,642.867663 1307.3309,637.464939 1300.54387,650.229487 C1293.75684,662.994034 1305.37334,669.170633 1299.78562,679.679602 C1294.1979,690.188571 1269.35627,674.495643 1260.35706,691.420692 C1251.35785,708.34574 1268.2007,723.679468 1262.86123,733.721534 C1257.52177,743.763601 1244.74461,742.386598 1232.83031,764.794133 C1220.91602,787.201667 1239.04914,801.087642 1269.40952,817.230543 C1299.7699,833.373444 1324.04891,835.760501 1335.9632,813.352967 C1347.8775,790.945432 1314.7314,775.085172 1319.08387,761.291052 C1323.43633,747.496932 1348.38837,751.991511 1356.12089,737.448749 C1363.85341,722.905987 1333.14433,706.57768 1339.46243,694.695062 C1345.78053,682.812445 1373.3946,690.579087 1379.83948,678.458035 C1386.28436,666.336983 1381.62024,661.076234 1373.36541,650.385782 C1365.11059,639.69533 1382.66691,621.670146 1367.05911,613.371331 Z" id="Leaf" fill="url(#linearGradient-51)" fill-rule="nonzero"></path><path d="M1273.88506,805.463564 C1274.43449,805.931693 1275.26118,805.859413 1275.73152,805.302122 C1276.20186,804.744831 1276.13773,803.913564 1275.5883,803.445436 C1262.39287,792.202738 1259.30287,780.365854 1266.10305,767.576585 C1266.44558,766.93238 1266.20686,766.135578 1265.56986,765.796879 C1264.93286,765.458179 1264.13879,765.70584 1263.79626,766.350045 C1256.37263,780.311869 1259.80731,793.469109 1273.88506,805.463564 Z" id="Leaves-base" fill="#D2DEF8" fill-rule="nonzero"></path><path d="M1298.87508,752.179525 C1299.55259,752.44163 1300.31356,752.102139 1300.57476,751.421249 C1300.83595,750.740359 1300.49846,749.975911 1299.82095,749.713805 C1288.84385,745.467124 1283.76553,736.213717 1284.5302,721.623022 C1284.56838,720.894417 1284.01152,720.272959 1283.28641,720.234958 C1282.5613,720.196956 1281.94253,720.756802 1281.90435,721.485407 C1281.08337,737.150602 1286.75888,747.492161 1298.87508,752.179525 Z" id="Leaves-base" fill="#D2DEF8" fill-rule="nonzero"></path><path d="M1324.17523,676.688682 C1324.63789,676.865886 1325.15729,676.637026 1325.33534,676.17751 C1325.51339,675.717994 1325.28267,675.20183 1324.82,675.024627 C1319.23862,672.886911 1316.66014,668.24505 1317.04634,660.875881 C1317.07212,660.384065 1316.69168,659.964336 1316.19661,659.938391 C1315.70154,659.912445 1315.27931,660.290108 1315.25354,660.781924 C1314.82932,668.876391 1317.81596,674.253031 1324.17523,676.688682 Z" id="Leaves-base" fill="#D2DEF8" fill-rule="nonzero"></path><path d="M1330.7875,669.620475 C1336.36281,673.530546 1342.49035,673.000002 1348.96375,668.121945 C1349.35707,667.825557 1349.43406,667.264327 1349.13571,666.868403 C1348.83736,666.47248 1348.27665,666.391791 1347.88333,666.68818 C1341.98997,671.129142 1336.69983,671.587182 1331.80651,668.155401 C1331.40088,667.870927 1330.84395,667.968283 1330.56256,668.372852 C1330.28116,668.777421 1330.38188,669.336001 1330.7875,669.620475 Z" id="Leaves-base" fill="#D2DEF8" fill-rule="nonzero"></path><path d="M1305.81072,736.072919 C1315.59873,742.862617 1326.41361,741.841159 1337.95065,733.147378 C1338.53286,732.70865 1338.653,731.886092 1338.219,731.310144 C1337.78499,730.734196 1336.96118,730.622957 1336.37897,731.061685 C1325.70054,739.108459 1316.11835,740.013489 1307.32767,733.91561 C1306.73449,733.504136 1305.91404,733.6535 1305.49515,734.249225 C1305.07625,734.844949 1305.21754,735.661445 1305.81072,736.072919 Z" id="Leaves-base" fill="#D2DEF8" fill-rule="nonzero"></path><path d="M1287.94524,796.251791 C1297.73325,803.041488 1308.54813,802.02003 1320.08517,793.32625 C1320.66738,792.887521 1320.78753,792.064964 1320.35352,791.489016 C1319.91951,790.913067 1319.0957,790.801829 1318.51349,791.240557 C1307.83506,799.28733 1298.25287,800.192361 1289.46219,794.094481 C1288.86901,793.683007 1288.04856,793.832372 1287.62967,794.428096 C1287.21077,795.023821 1287.35206,795.840316 1287.94524,796.251791 Z" id="Leaves-base" fill="#D2DEF8" fill-rule="nonzero"></path><path d="M1249.96349,848.127281 C1249.50982,848.980519 1249.8392,850.042892 1250.69919,850.500157 C1251.55918,850.957422 1253.79198,851.257386 1254.24566,850.404147 C1255.76181,844.553188 1258.96154,837.022466 1263.84485,827.811981 C1271.16983,813.996252 1291.6842,795.416146 1298.15178,779.293079 C1304.61935,763.170013 1303.95492,725.626447 1312.11903,700.373097 C1318.67331,680.099287 1333.51764,666.622039 1341.64618,656.609938 L1341.972,656.205932 C1350.02364,646.152834 1356.07746,632.228325 1355.797,632.077541 C1355.46145,631.900784 1349.17847,646.147199 1341.11013,655.747669 C1333.04179,665.348139 1320.19638,676.842897 1312.4585,693.29483 C1298.05419,723.920607 1303.24003,759.951363 1292.86888,779.45666 C1282.49773,798.961956 1269.38605,807.649419 1259.22345,824.363887 L1258.56894,825.449527 C1252.24994,836.02282 1249.38146,843.582072 1249.96349,848.127281 Z" id="Leaves-base" fill="#D2DEF8" fill-rule="nonzero"></path><polygon id="Vase-base" fill="url(#linearGradient-52)" fill-rule="nonzero" points="1198.11141 831.068553 1303.68207 831.068553 1280.22192 897.262264 1221.57156 897.262264"></polygon><path d="M1201.4,829 L1298.28207,829 C1301.2644,829 1303.68207,831.417662 1303.68207,834.4 L1303.68207,844.285535 C1303.68207,847.267872 1301.2644,849.685535 1298.28207,849.685535 L1201.4,849.685535 C1198.41766,849.685535 1196,847.267872 1196,844.285535 L1196,834.4 C1196,831.417662 1198.41766,829 1201.4,829 Z" id="Vase-base" fill="url(#linearGradient-53)" fill-rule="nonzero"></path></g></svg> 